<svg xmlns="http://www.w3.org/2000/svg" xmlns:xlink="http://www.w3.org/1999/xlink" xmlns:lucid="lucid" width="3124" height="3449.89"><g transform="translate(-129 -105.11197916666666)" lucid:page-tab-id="0_0"><path d="M131 166a6 6 0 0 1 6-6h308a6 6 0 0 1 6 6v228a6 6 0 0 1-6 6H137a6 6 0 0 1-6-6z" stroke="#3a414a" stroke-width="2" fill-opacity="0"/><path d="M131 111.1a6 6 0 0 1 6-6h137.24a6 6 0 0 1 6 6V142a6 6 0 0 1-6 6H137a6 6 0 0 1-6-6z" fill="#3a414a"/><use xlink:href="#a" transform="matrix(1,0,0,1,139,113.11197916666666) translate(0 21.58376736111111)"/><use xlink:href="#b" transform="matrix(1,0,0,1,139,113.11197916666666) translate(41.74262152777778 21.58376736111111)"/><path d="M130 706a6 6 0 0 1 6-6h210a6 6 0 0 1 6 6v552a6 6 0 0 1-6 6H136a6 6 0 0 1-6-6z" stroke="#3a414a" stroke-width="2" fill-opacity="0"/><path d="M130 624.22a6 6 0 0 1 6-6h197.4a6 6 0 0 1 6 6V682a6 6 0 0 1-6 6H136a6 6 0 0 1-6-6z" fill="#3a414a"/><use xlink:href="#c" transform="matrix(1,0,0,1,138,626.2239583333334) translate(0 21.639756944444443)"/><use xlink:href="#d" transform="matrix(1,0,0,1,138,626.2239583333334) translate(55.83767361111111 21.639756944444443)"/><use xlink:href="#e" transform="matrix(1,0,0,1,138,626.2239583333334) translate(0 48.52777777777778)"/><path d="M2002 806a6 6 0 0 1 6-6h412a6 6 0 0 1 6 6v650a6 6 0 0 1-6 6h-412a6 6 0 0 1-6-6z" stroke="#3a414a" stroke-width="2" fill-opacity="0"/><path d="M2002 751.1a6 6 0 0 1 6-6h188.9a6 6 0 0 1 6 6V782a6 6 0 0 1-6 6H2008a6 6 0 0 1-6-6z" fill="#3a414a"/><use xlink:href="#f" transform="matrix(1,0,0,1,2010,753.1119791666666) translate(0 21.58376736111111)"/><use xlink:href="#e" transform="matrix(1,0,0,1,2010,753.1119791666666) translate(105.45789930555554 21.58376736111111)"/><path d="M552 756a6 6 0 0 1 6-6h513a6 6 0 0 1 6 6v750a6 6 0 0 1-6 6H558a6 6 0 0 1-6-6z" stroke="#3a414a" stroke-width="2" fill-opacity="0"/><path d="M552 701.1a6 6 0 0 1 6-6h182.04a6 6 0 0 1 6 6V732a6 6 0 0 1-6 6H558a6 6 0 0 1-6-6z" fill="#3a414a"/><use xlink:href="#g" transform="matrix(1,0,0,1,560,703.1119791666666) translate(0 21.58376736111111)"/><use xlink:href="#e" transform="matrix(1,0,0,1,560,703.1119791666666) translate(98.58940972222223 21.58376736111111)"/><path d="M2626 656a6 6 0 0 1 6-6h614a6 6 0 0 1 6 6v850a6 6 0 0 1-6 6h-614a6 6 0 0 1-6-6z" stroke="#3a414a" stroke-width="2" fill-opacity="0"/><path d="M2626 601.1a6 6 0 0 1 6-6h274.7a6 6 0 0 1 6 6V632a6 6 0 0 1-6 6H2632a6 6 0 0 1-6-6z" fill="#3a414a"/><use xlink:href="#h" transform="matrix(1,0,0,1,2634,603.1119791666666) translate(0 21.58376736111111)"/><use xlink:href="#i" transform="matrix(1,0,0,1,2634,603.1119791666666) translate(69.75911458333333 21.58376736111111)"/><use xlink:href="#e" transform="matrix(1,0,0,1,2634,603.1119791666666) translate(191.24348958333331 21.58376736111111)"/><path d="M1277 818.5a6 6 0 0 1 6-6h513a6 6 0 0 1 6 6v650a6 6 0 0 1-6 6h-513a6 6 0 0 1-6-6z" stroke="#3a414a" stroke-width="2" fill-opacity="0"/><path d="M1277 763.6a6 6 0 0 1 6-6h180.66a6 6 0 0 1 6 6v30.9a6 6 0 0 1-6 6H1283a6 6 0 0 1-6-6z" fill="#3a414a"/><use xlink:href="#j" transform="matrix(1,0,0,1,1285,765.6119791666666) translate(0 21.58376736111111)"/><use xlink:href="#e" transform="matrix(1,0,0,1,1285,765.6119791666666) translate(97.21137152777777 21.58376736111111)"/><path d="M140 2718a6 6 0 0 1 6-6h248a6 6 0 0 1 6 6v430a6 6 0 0 1-6 6H146a6 6 0 0 1-6-6z" stroke="#3a414a" stroke-width="2" fill-opacity="0"/><path d="M140 2663.1a6 6 0 0 1 6-6h135.4a6 6 0 0 1 6 6v30.9a6 6 0 0 1-6 6H146a6 6 0 0 1-6-6z" fill="#3a414a"/><use xlink:href="#k" transform="matrix(1,0,0,1,148,2665.1119791666665) translate(0 21.58376736111111)"/><use xlink:href="#l" transform="matrix(1,0,0,1,148,2665.1119791666665) translate(63.89973958333333 21.58376736111111)"/><path d="M600 2718a6 6 0 0 1 6-6h1658a6 6 0 0 1 6 6v830a6 6 0 0 1-6 6H606a6 6 0 0 1-6-6z" stroke="#3a414a" stroke-width="2" fill-opacity="0"/><path d="M600 2663.1a6 6 0 0 1 6-6h64.3a6 6 0 0 1 6 6v30.9a6 6 0 0 1-6 6H606a6 6 0 0 1-6-6z" fill="#3a414a"/><use xlink:href="#m" transform="matrix(1,0,0,1,608,2665.1119791666665) translate(0 21.58376736111111)"/><path d="M236.2 223.6a8 8 0 0 1 9.6 0l70.4 52.8a4.5 4.5 0 0 1 0 7.2l-70.4 52.8a8 8 0 0 1-9.6 0l-70.4-52.8a4.5 4.5 0 0 1 0-7.2z" stroke="#3a414a" stroke-width="2" fill="#fff"/><use xlink:href="#n" transform="matrix(1,0,0,1,166,225) translate(57.25868923611111 45.59027777777778)"/><use xlink:href="#o" transform="matrix(1,0,0,1,166,225) translate(29.25847222222222 72.47829861111111)"/><path d="M160 1088a6 6 0 0 1 6-6h150a6 6 0 0 1 6 6v110a6 6 0 0 1-6 6H166a6 6 0 0 1-6-6z" stroke="#3a414a" stroke-width="2" fill="#fff"/><use xlink:href="#p" transform="matrix(1,0,0,1,172,1094) translate(22.52105034722222 42.96527777777778)"/><use xlink:href="#q" transform="matrix(1,0,0,1,172,1094) translate(105.25759548611111 42.96527777777778)"/><use xlink:href="#r" transform="matrix(1,0,0,1,172,1094) translate(25.79253472222223 69.85329861111111)"/><use xlink:href="#s" transform="matrix(1,0,0,1,172,1094) translate(81.63020833333334 69.85329861111111)"/><path d="M160 766a6 6 0 0 1 6-6h150a6 6 0 0 1 6 6v110a6 6 0 0 1-6 6H166a6 6 0 0 1-6-6z" stroke="#3a414a" stroke-width="2" fill="#fff"/><use xlink:href="#t" transform="matrix(1,0,0,1,172,772) translate(44.20616319444444 30.71527777777778)"/><use xlink:href="#u" transform="matrix(1,0,0,1,172,772) translate(0.2174479166666714 57.603298611111114)"/><use xlink:href="#v" transform="matrix(1,0,0,1,172,772) translate(29.275607638888893 84.49131944444446)"/><path d="M2032 1286a6 6 0 0 1 6-6h150a6 6 0 0 1 6 6v110a6 6 0 0 1-6 6h-150a6 6 0 0 1-6-6z" stroke="#3a414a" stroke-width="2" fill="#fff"/><use xlink:href="#p" transform="matrix(1,0,0,1,2044,1292) translate(22.52105034722222 42.96527777777778)"/><use xlink:href="#q" transform="matrix(1,0,0,1,2044,1292) translate(105.25759548611111 42.96527777777778)"/><use xlink:href="#w" transform="matrix(1,0,0,1,2044,1292) translate(0.982421875 69.85329861111111)"/><use xlink:href="#s" transform="matrix(1,0,0,1,2044,1292) translate(106.44032118055554 69.85329861111111)"/><path d="M2148.2 863.6a8 8 0 0 1 9.6 0l70.4 52.8a4.5 4.5 0 0 1 0 7.2l-70.4 52.8a8 8 0 0 1-9.6 0l-70.4-52.8a4.5 4.5 0 0 1 0-7.2z" stroke="#3a414a" stroke-width="2" fill="#fff"/><use xlink:href="#x" transform="matrix(1,0,0,1,2078,865) translate(25.401050347222228 53.53777777777778)"/><use xlink:href="#v" transform="matrix(1,0,0,1,2078,865) translate(35.28060763888889 80.4257986111111)"/><path d="M582 1336a6 6 0 0 1 6-6h150a6 6 0 0 1 6 6v110a6 6 0 0 1-6 6H588a6 6 0 0 1-6-6z" stroke="#3a414a" stroke-width="2" fill="#fff"/><use xlink:href="#p" transform="matrix(1,0,0,1,594,1342) translate(22.52105034722222 42.96527777777778)"/><use xlink:href="#q" transform="matrix(1,0,0,1,594,1342) translate(105.25759548611111 42.96527777777778)"/><use xlink:href="#y" transform="matrix(1,0,0,1,594,1342) translate(4.416666666666657 69.85329861111111)"/><use xlink:href="#s" transform="matrix(1,0,0,1,594,1342) translate(103.00607638888889 69.85329861111111)"/><path d="M706.2 813.6a8 8 0 0 1 9.6 0l70.4 52.8a4.5 4.5 0 0 1 0 7.2l-70.4 52.8a8 8 0 0 1-9.6 0l-70.4-52.8a4.5 4.5 0 0 1 0-7.2z" stroke="#3a414a" stroke-width="2" fill="#fff"/><use xlink:href="#z" transform="matrix(1,0,0,1,636,815) translate(28.835295138888885 51.53777777777778)"/><use xlink:href="#v" transform="matrix(1,0,0,1,636,815) translate(35.28060763888889 78.4257986111111)"/><path d="M2656 1336a6 6 0 0 1 6-6h150a6 6 0 0 1 6 6v110a6 6 0 0 1-6 6h-150a6 6 0 0 1-6-6z" stroke="#3a414a" stroke-width="2" fill="#fff"/><use xlink:href="#p" transform="matrix(1,0,0,1,2668,1342) translate(22.52105034722222 42.96527777777778)"/><use xlink:href="#q" transform="matrix(1,0,0,1,2668,1342) translate(105.25759548611111 42.96527777777778)"/><use xlink:href="#A" transform="matrix(1,0,0,1,2668,1342) translate(18.831814236111114 69.85329861111111)"/><use xlink:href="#s" transform="matrix(1,0,0,1,2668,1342) translate(88.59092881944444 69.85329861111111)"/><path d="M2785.53 713.6a8 8 0 0 1 9.6 0l70.4 52.8a4.5 4.5 0 0 1 0 7.2l-70.4 52.8a8 8 0 0 1-9.6 0l-70.4-52.8a4.5 4.5 0 0 1 0-7.2z" stroke="#3a414a" stroke-width="2" fill="#fff"/><use xlink:href="#B" transform="matrix(1,0,0,1,2715.3333333333335,715) translate(43.245442708333336 36.19574652777777)"/><use xlink:href="#C" transform="matrix(1,0,0,1,2715.3333333333335,715) translate(17.382812500000014 63.08376736111111)"/><use xlink:href="#v" transform="matrix(1,0,0,1,2715.3333333333335,715) translate(35.27560763888889 89.97178819444443)"/><path d="M1408 1298.5a6 6 0 0 1 6-6h150a6 6 0 0 1 6 6v110a6 6 0 0 1-6 6h-150a6 6 0 0 1-6-6z" stroke="#3a414a" stroke-width="2" fill="#fff"/><use xlink:href="#p" transform="matrix(1,0,0,1,1420,1304.5) translate(22.52105034722222 42.96527777777778)"/><use xlink:href="#q" transform="matrix(1,0,0,1,1420,1304.5) translate(105.25759548611111 42.96527777777778)"/><use xlink:href="#D" transform="matrix(1,0,0,1,1420,1304.5) translate(5.105685763888893 69.85329861111111)"/><use xlink:href="#s" transform="matrix(1,0,0,1,1420,1304.5) translate(102.31705729166666 69.85329861111111)"/><path d="M1500.2 876.1a8 8 0 0 1 9.6 0l70.4 52.8a4.5 4.5 0 0 1 0 7.2l-70.4 52.8a8 8 0 0 1-9.6 0l-70.4-52.8a4.5 4.5 0 0 1 0-7.2z" stroke="#3a414a" stroke-width="2" fill="#fff"/><use xlink:href="#E" transform="matrix(1,0,0,1,1430,877.5) translate(29.524314236111113 51.53777777777778)"/><use xlink:href="#v" transform="matrix(1,0,0,1,1430,877.5) translate(35.28060763888889 78.4257986111111)"/><path d="M189 2978a6 6 0 0 1 6-6h150a6 6 0 0 1 6 6v110a6 6 0 0 1-6 6H195a6 6 0 0 1-6-6z" stroke="#3a414a" stroke-width="2" fill="#fff"/><use xlink:href="#F" transform="matrix(1,0,0,1,201,2984) translate(40.175130208333336 58.27777777777778)"/><path d="M1354 3378a6 6 0 0 1 6-6h150a6 6 0 0 1 6 6v110a6 6 0 0 1-6 6h-150a6 6 0 0 1-6-6z" stroke="#3a414a" stroke-width="2" fill="#fff"/><use xlink:href="#G" transform="matrix(1,0,0,1,1366,3384) translate(28.787326388888893 42.96527777777778)"/><use xlink:href="#H" transform="matrix(1,0,0,1,1366,3384) translate(38.845920138888886 69.85329861111111)"/><path d="M630 3378a6 6 0 0 1 6-6h150a6 6 0 0 1 6 6v110a6 6 0 0 1-6 6H636a6 6 0 0 1-6-6z" stroke="#3a414a" stroke-width="2" fill="#fff"/><use xlink:href="#I" transform="matrix(1,0,0,1,642,3384) translate(-17.263020833333343 57.08376736111111)"/><path d="M992 3378a6 6 0 0 1 6-6h150a6 6 0 0 1 6 6v110a6 6 0 0 1-6 6H998a6 6 0 0 1-6-6z" stroke="#3a414a" stroke-width="2" fill="#fff"/><use xlink:href="#J" transform="matrix(1,0,0,1,1004,3384) translate(-29.37239583333333 57.08376736111111)"/><path d="M2078 3378a6 6 0 0 1 6-6h150a6 6 0 0 1 6 6v110a6 6 0 0 1-6 6h-150a6 6 0 0 1-6-6z" stroke="#3a414a" stroke-width="2" fill="#fff"/><use xlink:href="#K" transform="matrix(1,0,0,1,2090,3384) translate(-18.0876736111111 57.08376736111111)"/><path d="M1716 3378a6 6 0 0 1 6-6h150a6 6 0 0 1 6 6v110a6 6 0 0 1-6 6h-150a6 6 0 0 1-6-6z" stroke="#3a414a" stroke-width="2" fill="#fff"/><use xlink:href="#L" transform="matrix(1,0,0,1,1728,3384) translate(-30.989149305555543 57.08376736111111)"/><path d="M2147.04 549.02l1.05.1 1.06.24 1 .42.94.58.83.7.72.84.57.93.42 1 .25 1.08.07 1.06V842.5h-1.94V556.04l-.07-.83-.18-.75-.3-.73-.42-.67-.5-.6-.6-.5-.68-.43-.73-.3-.76-.18-.84-.06H1297.1V549zM1215.9 551H979.35V549h236.55zM417.16 279.36l1 .42.94.58.83.7.7.84.6.93.4 1 .26 1.08.08 1.06v258l.06.83.18.75.3.73.42.67.5.6.6.5.68.43.73.3.76.18.84.06h471.1V551H426.97l-1.05-.1-1.06-.24-1-.42-.94-.58-.83-.7-.7-.84-.6-.93-.4-1-.26-1.08-.08-1.06v-258l-.06-.83-.18-.75-.3-.73-.42-.67-.5-.6-.6-.5-.68-.43-.73-.3-.76-.18-.84-.06H320v-1.96h95.04l1.05.1z" stroke="#5e5e5e" stroke-width=".05" fill="#5e5e5e"/><path d="M320.03 280.98h-1.12l.1-.98-.1-.98h1.13z" fill="#5e5e5e"/><path stroke="#5e5e5e" stroke-width=".05" fill="#5e5e5e"/><path d="M2153 857.76l-4.64-14.26h9.28z" fill="#5e5e5e"/><path d="M2153 860.92l-5.98-18.4h11.96zm-3.3-16.45l3.3 10.14 3.3-10.13z" stroke="#5e5e5e" stroke-width=".05" fill="#5e5e5e"/><use xlink:href="#M" transform="matrix(1,0,0,1,1215.8978110108135,539.2447916666666) translate(0.005000000000002558 17.22222222222222)"/><path d="M241.97 740.5h-1.94V559.76h1.94zm0-202.25h-1.94V340h1.94z" stroke="#5e5e5e" stroke-width=".05" fill="#5e5e5e"/><path d="M241 339l.97-.06v1.1h-1.94v-1.1z" fill="#5e5e5e"/><path stroke="#5e5e5e" stroke-width=".05" fill="#5e5e5e"/><path d="M241 755.76l-4.63-14.26h9.26z" fill="#5e5e5e"/><path d="M241 758.92l-5.98-18.4h11.96zm-3.3-16.45l3.3 10.14 3.3-10.13z" stroke="#5e5e5e" stroke-width=".05" fill="#5e5e5e"/><use xlink:href="#M" transform="matrix(1,0,0,1,200.39670138888886,538.2458435118731) translate(0.005000000000002558 17.22222222222222)"/><path d="M1499.04 549.02l1.05.1 1.06.24 1 .42.94.58.83.7.7.84.6.93.4 1 .26 1.08.07 1.06V855h-1.94V556.04l-.07-.83-.18-.75-.3-.73-.42-.67-.5-.6-.6-.5-.68-.43-.73-.3-.76-.18-.84-.06H1297.1V549zM1215.9 551H979.35V549h236.55zM417.16 279.36l1 .42.94.58.83.7.7.84.6.93.4 1 .26 1.08.08 1.06v258l.06.83.18.75.3.73.42.67.5.6.6.5.68.43.73.3.76.18.84.06h471.1V551H426.97l-1.05-.1-1.06-.24-1-.42-.94-.58-.83-.7-.7-.84-.6-.93-.4-1-.26-1.08-.08-1.06v-258l-.06-.83-.18-.75-.3-.73-.42-.67-.5-.6-.6-.5-.68-.43-.73-.3-.76-.18-.84-.06H320v-1.96h95.04l1.05.1z" stroke="#5e5e5e" stroke-width=".05" fill="#5e5e5e"/><path d="M320.03 280.98h-1.12l.1-.98-.1-.98h1.13z" fill="#5e5e5e"/><path stroke="#5e5e5e" stroke-width=".05" fill="#5e5e5e"/><path d="M1505 870.26l-4.63-14.26h9.27z" fill="#5e5e5e"/><path d="M1505 873.42l-5.98-18.4h11.96zm-3.3-16.45l3.3 10.14 3.3-10.13z" stroke="#5e5e5e" stroke-width=".05" fill="#5e5e5e"/><use xlink:href="#M" transform="matrix(1,0,0,1,898.1478110108137,539.2447916666666) translate(0.005000000000002558 17.22222222222222)"/><path d="M1346.97 2966.04l-.08 1.05-.26 1.06-.42 1-.58.94-.7.83-.84.72-.93.57-1 .42-1.08.25-1.06.07H744.48l-.82.07-.77.18-.74.3-.67.42-.6.5-.52.6-.4.68-.3.73-.2.76-.06.84v374.46h-1.95v-374.54l.08-1.05.26-1.06.43-1 .57-.94.7-.83.84-.72.93-.57 1.02-.42 1.05-.25 1.05-.07h595.56l.83-.07.75-.18.73-.3.67-.42.6-.5.5-.6.42-.68.3-.73.2-.76.06-.84v-721.72h1.94zm75.9-903.07h-70.83l-.83.07-.75.18-.73.3-.67.42-.6.5-.5.6-.42.68-.3.73-.2.76-.06.84v154.7h-1.94v-154.78l.08-1.05.26-1.06.42-1 .58-.94.7-.83.84-.72.93-.57 1-.42 1.08-.25 1.06-.07h70.9zm731.1-889l.07.82.18.75.3.73.42.67.5.6.6.5.68.42.73.3.76.2.84.06h129l1.05.08 1.06.26 1 .42.94.58.83.7.72.84.57.93.42 1 .25 1.08.07 1.06v870.08l-.08 1.05-.26 1.06-.42 1-.57.94-.72.83-.83.72-.93.57-1 .42-1.08.25-1.06.07h-763.47v-1.94h763.4l.82-.07.75-.18.73-.3.67-.42.6-.5.5-.6.42-.68.3-.73.2-.76.06-.84v-869.92l-.07-.83-.18-.75-.3-.73-.42-.67-.5-.6-.6-.5-.68-.42-.73-.3-.76-.2-.84-.06h-129l-1.05-.08-1.06-.26-1-.42-.94-.58-.83-.7-.72-.84-.57-.93-.42-1-.25-1.08-.07-1.06v-43.37h1.94zm0-64.8h-1.94V980h1.94z" stroke="#5e5e5e" stroke-width=".05" fill="#5e5e5e"/><path d="M2153 979l.97-.06v1.1h-1.94v-1.1z" fill="#5e5e5e"/><path stroke="#5e5e5e" stroke-width=".05" fill="#5e5e5e"/><path d="M738.44 3367.76l-4.63-14.26h9.28z" fill="#5e5e5e"/><path d="M738.44 3370.92l-5.98-18.4h11.96zm-3.3-16.45l3.3 10.14 3.3-10.13z" stroke="#5e5e5e" stroke-width=".05" fill="#5e5e5e"/><use xlink:href="#N" transform="matrix(1,0,0,1,1422.8739075944086,2051.2447916666665) translate(0.005000000000002558 17.22222222222222)"/><use xlink:href="#O" transform="matrix(1,0,0,1,1422.8739075944086,2051.2447916666665) translate(52.39215277777778 17.22222222222222)"/><path d="M945.98 2556.04l-.1 1.05-.24 1.06-.42 1-.58.94-.7.83-.84.72-.93.57-1 .42-1.08.25-1.06.07H689.6l-.83.07-.76.18-.72.3-.67.42-.6.5-.5.6-.42.68-.3.73-.18.76-.07.84v784.46h-1.95v-784.54l.08-1.05.26-1.06.42-1 .57-.94.72-.83.84-.72.93-.57 1-.42 1.07-.25 1.05-.07h249.44l.83-.07.75-.18.73-.3.67-.42.6-.5.5-.6.43-.68.3-.73.18-.76.06-.84V2177.3H946zm-215.33-1427h208.4l1.04.07 1.06.26 1 .42.94.58.83.7.72.84.57.93.42 1 .25 1.08.08 1.06V2155.8H944V1136.03l-.06-.83-.18-.75-.3-.73-.42-.67-.5-.6-.6-.5-.68-.42-.73-.3-.76-.2-.84-.06h-208.4l-1.04-.08-1.06-.26-1.02-.42-.93-.58-.28-.24h4.3v-.38zm-5.06-21.15l-1.96-.02V922.04h1.95z" stroke="#5e5e5e" stroke-width=".05" fill="#5e5e5e"/><path d="M725.6 922.07h-1.96v-.3l1.95-1.46z" fill="#5e5e5e"/><path stroke="#5e5e5e" stroke-width=".05" fill="#5e5e5e"/><path d="M683.56 3367.76l-4.64-14.26h9.27z" fill="#5e5e5e"/><path d="M683.56 3370.92l-5.98-18.4h11.95zm-3.3-16.45l3.3 10.14 3.3-10.13z" stroke="#5e5e5e" stroke-width=".05" fill="#5e5e5e"/><use xlink:href="#P" transform="matrix(1,0,0,1,871.7838541666666,2155.7925012302135) translate(0.0049999999999954525 17.22222222222222)"/><use xlink:href="#O" transform="matrix(1,0,0,1,871.7838541666666,2155.7925012302135) translate(97.13173611111112 17.22222222222222)"/><path d="M1046.53 3352.5h-1.95V2155.25h1.95zm0-1218.76h-1.95v-135.3h1.95zM742.6 1023.96l.06.83.2.75.3.73.4.67.5.6.6.5.7.42.7.3.78.2.82.06h291.94l1.05.08 1.06.26 1.02.42.94.58.83.7.7.84.58.93.4 1 .27 1.08.08 1.06v940.96h-1.95v-940.88l-.06-.83-.2-.75-.3-.73-.4-.67-.5-.6-.6-.5-.68-.42-.73-.3-.76-.2-.82-.06H747.6l-1.07-.08-1.06-.26-1-.42-.95-.58-.83-.7-.72-.84-.57-.93-.4-1-.27-1.08-.08-1.06V909.28h1.95z" stroke="#5e5e5e" stroke-width=".05" fill="#5e5e5e"/><path d="M742.6 909.3h-1.95v-.3l1.95-1.45z" fill="#5e5e5e"/><path stroke="#5e5e5e" stroke-width=".05" fill="#5e5e5e"/><path d="M1045.56 3367.76l-4.64-14.26h9.27z" fill="#5e5e5e"/><path d="M1045.56 3370.92l-5.98-18.4h11.96zm-3.3-16.45l3.3 10.14 3.3-10.13z" stroke="#5e5e5e" stroke-width=".05" fill="#5e5e5e"/><use xlink:href="#N" transform="matrix(1,0,0,1,994.7110531114753,1976.9192149776468) translate(0.005000000000002558 17.22222222222222)"/><use xlink:href="#O" transform="matrix(1,0,0,1,994.7110531114753,1976.9192149776468) translate(52.39215277777778 17.22222222222222)"/><path d="M2362.84 2362.97h-359.8l-.83.07-.75.18-.73.3-.67.42-.6.5-.5.6-.42.68-.3.73-.2.76-.06.84v798l-.08 1.05-.26 1.06-.42 1-.58.94-.7.83-.84.72-.93.57-1 .42-1.08.25-1.06.07h-884.56l-.82.07-.77.18-.74.3-.67.42-.6.5-.52.6-.4.68-.3.73-.2.76-.06.84v174.46h-1.95v-174.54l.08-1.05.26-1.06.42-1 .58-.94.7-.83.84-.72.94-.57 1-.42 1.07-.25 1.05-.07h884.56l.83-.07.75-.18.73-.3.67-.42.6-.5.5-.6.42-.68.3-.73.2-.76.06-.84v-798l.08-1.05.26-1.06.42-1 .58-.94.7-.83.84-.72.93-.57 1-.42 1.08-.25 1.06-.07h359.88zm428.47-1239l.07.82.2.75.3.73.4.67.5.6.6.5.68.42.73.3.77.2.82.06h216.67l1.05.08 1.06.26 1 .42.94.58.83.7.72.84.57.93.42 1 .25 1.08.07 1.06v1220.08l-.08 1.05-.26 1.06-.42 1-.57.94-.72.83-.83.72-.93.57-1 .42-1.08.25-1.06.07h-503.77v-1.94h503.7l.82-.07.75-.18.73-.3.67-.42.6-.5.5-.6.42-.68.3-.73.2-.76.06-.84V1136.04l-.07-.83-.18-.75-.3-.73-.42-.67-.5-.6-.6-.5-.68-.42-.73-.3-.76-.2-.84-.06H2796.3l-1.06-.08-1.06-.26-1-.42-.95-.58-.83-.7-.7-.84-.58-.93-.42-1-.26-1.08-.08-1.06v-45.4h1.95zm0-66.85h-1.94V830h1.95z" stroke="#5e5e5e" stroke-width=".05" fill="#5e5e5e"/><path d="M2790.33 829l.98-.06v1.1h-1.94v-1.1z" fill="#5e5e5e"/><path stroke="#5e5e5e" stroke-width=".05" fill="#5e5e5e"/><path d="M1100.44 3367.76l-4.63-14.26h9.28z" fill="#5e5e5e"/><path d="M1100.44 3370.92l-5.98-18.4h11.96zm-3.3-16.45l3.3 10.14 3.3-10.13z" stroke="#5e5e5e" stroke-width=".05" fill="#5e5e5e"/><use xlink:href="#P" transform="matrix(1,0,0,1,2362.837449261075,2351.2447916666665) translate(0.0049999999999954525 17.22222222222222)"/><use xlink:href="#O" transform="matrix(1,0,0,1,2362.837449261075,2351.2447916666665) translate(97.13173611111112 17.22222222222222)"/><path d="M3120.97 2556.04l-.08 1.05-.26 1.06-.42 1-.57.94-.72.83-.83.72-.93.57-1 .42-1.08.25-1.06.07h-921.56l-.82.07-.77.18-.74.3-.67.42-.6.5-.52.6-.4.68-.3.73-.2.76-.06.84v784.46h-1.95v-784.54l.08-1.05.26-1.06.42-1 .58-.94.7-.83.84-.72.93-.57 1.02-.42 1.05-.25 1.05-.07h921.56l.83-.07.75-.18.73-.3.67-.42.6-.5.5-.6.42-.68.3-.73.2-.76.06-.84v-139.58h1.94zm-309.24-1532.08l.06.83.17.75.3.73.42.67.5.6.6.5.67.42.73.3.76.2.83.06h297.24l1.05.08 1.06.26 1 .42.94.58.83.7.72.84.57.93.42 1 .25 1.08.07 1.06v1358.9h-1.94V1036.05l-.07-.83-.18-.75-.3-.73-.42-.67-.5-.6-.6-.5-.68-.42-.73-.3-.76-.2-.84-.06H2816.7l-1.04-.08-1.07-.26-1.02-.42-.93-.58-.83-.7-.72-.84-.57-.93-.42-1-.24-1.08-.1-1.06v-207.1h1.96z" stroke="#5e5e5e" stroke-width=".05" fill="#5e5e5e"/><path d="M2811.72 816.96h-1.94v-.3l1.94-1.45z" fill="#5e5e5e"/><path stroke="#5e5e5e" stroke-width=".05" fill="#5e5e5e"/><path d="M2186.44 3367.76l-4.63-14.26h9.28z" fill="#5e5e5e"/><path d="M2186.44 3370.92l-5.97-18.4h11.95zm-3.3-16.45l3.3 10.14 3.3-10.13z" stroke="#5e5e5e" stroke-width=".05" fill="#5e5e5e"/><use xlink:href="#N" transform="matrix(1,0,0,1,3017.7821180555557,2394.867234602837) translate(0.0049999999999954525 17.22222222222222)"/><use xlink:href="#Q" transform="matrix(1,0,0,1,3017.7821180555557,2394.867234602837) translate(52.392152777777774 17.22222222222222)"/><use xlink:href="#R" transform="matrix(1,0,0,1,3017.7821180555557,2394.867234602837) translate(131.81055555555554 17.22222222222222)"/><path d="M1246.97 2865.96l.07.83.18.75.3.73.42.67.5.6.6.5.68.42.73.3.76.2.84.06h873.56l1.05.08 1.06.26 1.03.42.93.57.83.72.7.83.58.93.4 1 .27 1.08.08 1.06v474.54h-1.95v-474.46l-.06-.83-.2-.75-.3-.73-.4-.67-.5-.6-.6-.5-.68-.42-.73-.3-.76-.2-.82-.06h-873.56l-1.05-.08-1.06-.26-1-.42-.94-.57-.83-.72-.7-.83-.6-.93-.4-1-.26-1.08-.07-1.06v-621.8h1.94zm0-643.23h-1.94v-67.48h1.94zm289.63-1136.27l.07.83.18.75.3.73.4.67.52.6.6.5.67.42.73.3.77.2.82.06h223.38l1.05.08 1.06.26 1 .42.94.58.83.7.7.84.6.93.4 1 .26 1.08.07 1.06v857.58l-.08 1.05-.26 1.06-.42 1-.58.94-.7.83-.84.7-.93.6-1 .4-1.08.26-1.06.07h-513l-.83.07-.75.18-.73.3-.67.42-.6.5-.5.6-.42.68-.3.73-.2.76-.06.84v165.7h-1.94v-165.78l.08-1.05.26-1.06.42-1 .58-.94.7-.83.84-.7.93-.6 1-.4 1.08-.26 1.06-.07h513l.83-.07.75-.18.73-.3.67-.42.6-.5.5-.6.42-.68.3-.73.2-.76.06-.84v-857.42l-.07-.83-.18-.75-.3-.73-.42-.67-.5-.6-.6-.5-.68-.42-.73-.3-.76-.2-.84-.06H1541.6l-1.07-.08-1.06-.26-1-.42-.95-.58-.83-.7-.72-.84-.57-.93-.4-1-.27-1.08-.08-1.06V971.78h1.95z" stroke="#5e5e5e" stroke-width=".05" fill="#5e5e5e"/><path d="M1536.6 971.8h-1.95v-.3l1.95-1.45z" fill="#5e5e5e"/><path stroke="#5e5e5e" stroke-width=".05" fill="#5e5e5e"/><path d="M2131.56 3367.76l-4.64-14.26h9.27z" fill="#5e5e5e"/><path d="M2131.56 3370.92l-5.98-18.4h11.95zm-3.3-16.45l3.3 10.14 3.3-10.13z" stroke="#5e5e5e" stroke-width=".05" fill="#5e5e5e"/><use xlink:href="#P" transform="matrix(1,0,0,1,1121.412326388889,2222.7266222557882) translate(0.0049999999999954525 17.22222222222222)"/><use xlink:href="#Q" transform="matrix(1,0,0,1,1121.412326388889,2222.7266222557882) translate(97.13173611111112 17.22222222222222)"/><use xlink:href="#R" transform="matrix(1,0,0,1,1121.412326388889,2222.7266222557882) translate(176.5501388888889 17.22222222222222)"/><path d="M2523.14 2262.97h-620.1l-.83.07-.75.18-.73.3-.67.42-.6.5-.5.6-.42.68-.3.73-.2.76-.06.84v998l-.08 1.05-.26 1.06-.42 1-.58.94-.7.83-.84.72-.93.57-1 .42-1.08.25-1.06.07h-86.9l-.83.07-.76.18-.72.3-.68.42-.6.5-.5.6-.42.68-.3.73-.18.76-.07.84v46.92l.07.83.18.75.3.73.4.67.52.6.6.5.67.42.74.3.77.2.83.06h28.07l1.06.08 1.06.26 1 .42.95.57.83.72.7.83.58.93.42 1 .26 1.08.08 1.06v15.54h-1.95v-15.46l-.08-.83-.18-.75-.3-.73-.4-.67-.53-.6-.58-.5-.68-.42-.72-.3-.77-.2-.82-.06h-28.07l-1.06-.08-1.06-.26-1-.42-.95-.57-.84-.72-.7-.83-.58-.93-.42-1-.26-1.08-.08-1.06v-47.08l.08-1.05.26-1.06.42-1 .57-.94.7-.83.84-.72.93-.57 1-.42 1.07-.25 1.06-.07h86.9l.83-.07.75-.18.73-.3.67-.42.6-.5.5-.6.42-.68.3-.73.2-.76.06-.84v-998l.08-1.05.26-1.06.42-1 .58-.94.7-.83.84-.72.93-.57 1-.42 1.08-.25 1.06-.07h620.18zm203.05-1039l.05.82.18.75.3.73.42.67.5.6.6.5.68.42.73.3.76.2.83.06h180.8l1.04.08 1.06.26 1 .42.94.58.83.7.72.84.57.93.42 1 .25 1.08.07 1.06v1020.08l-.08 1.05-.26 1.06-.42 1-.57.94-.72.83-.83.72-.93.57-1 .42-1.08.25-1.06.07h-184.6v-1.94h184.52l.83-.07.75-.18.73-.3.67-.42.6-.5.5-.6.42-.68.3-.73.2-.76.06-.84V1236.04l-.07-.83-.18-.75-.3-.73-.42-.67-.5-.6-.6-.5-.68-.42-.73-.3-.76-.2-.84-.06h-180.8l-1.04-.08-1.07-.26-1-.42-.94-.58-.82-.7-.72-.84-.57-.93-.43-1-.25-1.08-.1-1.06.02-145.4h1.95zm44.7-374l-.1 1.06-.25 1.06-.42 1-.57.94-.7.83-.84.7-.93.58-1.03.42-1.06.26-1.05.08h-32.7l-.83.08-.76.18-.73.3-.67.4-.6.53-.5.6-.42.66-.3.73-.2.75-.05.83v195.14h-1.96V861.9l.08-1.05.25-1.07.42-1 .57-.94.7-.84.84-.7.94-.58 1-.42 1.08-.25 1.05-.1h32.7l.83-.05.77-.2.73-.3.67-.4.6-.5.5-.6.42-.68.3-.73.18-.78.06-.82v-32.96h1.95z" stroke="#5e5e5e" stroke-width=".05" fill="#5e5e5e"/><path d="M2770.9 816.67v.3h-1.96v-1.76z" fill="#5e5e5e"/><path stroke="#5e5e5e" stroke-width=".05" fill="#5e5e5e"/><path d="M1838.16 3367.76l-4.63-14.26h9.27z" fill="#5e5e5e"/><path d="M1838.16 3370.92l-5.97-18.4h11.94zm-3.3-16.45l3.3 10.14 3.3-10.13z" stroke="#5e5e5e" stroke-width=".05" fill="#5e5e5e"/><use xlink:href="#N" transform="matrix(1,0,0,1,2523.144213287748,2251.2447916666665) translate(0.0049999999999954525 17.22222222222222)"/><use xlink:href="#S" transform="matrix(1,0,0,1,2523.144213287748,2251.2447916666665) translate(52.392152777777774 17.22222222222222)"/><use xlink:href="#T" transform="matrix(1,0,0,1,2523.144213287748,2251.2447916666665) translate(105.90777777777777 17.22222222222222)"/><use xlink:href="#U" transform="matrix(1,0,0,1,2523.144213287748,2251.2447916666665) translate(132.0883333333333 17.22222222222222)"/><path d="M2088.04 2162.97h-285l-.83.07-.75.18-.73.3-.67.42-.6.5-.5.6-.42.68-.3.73-.2.76-.06.84V3352.5h-1.94V2167.96l.08-1.05.26-1.06.42-1 .58-.94.7-.83.84-.72.93-.57 1-.42 1.08-.25 1.06-.07h285.08zm93.16-1089l.06.82.2.75.3.73.4.67.5.6.6.5.68.42.73.3.77.2.82.06h202.78l1.05.08 1.06.26 1 .42.94.58.83.7.72.84.57.93.42 1 .25 1.08.07 1.06v1070.08l-.08 1.05-.26 1.06-.42 1-.57.94-.72.83-.83.72-.93.57-1 .42-1.08.25-1.06.07h-78.14v-1.94h78.06l.83-.07.75-.18.73-.3.67-.42.6-.5.5-.6.42-.68.3-.73.2-.76.06-.84V1086.04l-.07-.83-.18-.75-.3-.73-.42-.67-.5-.6-.6-.5-.68-.42-.73-.3-.76-.2-.84-.06h-202.78l-1.05-.08-1.06-.26-1.02-.42-.93-.58-.83-.7-.72-.84-.57-.93-.4-1-.27-1.08-.08-1.06v-112.2h1.95z" stroke="#5e5e5e" stroke-width=".05" fill="#5e5e5e"/><path d="M2181.2 961.86h-1.95v-.3l1.95-1.46z" fill="#5e5e5e"/><path stroke="#5e5e5e" stroke-width=".05" fill="#5e5e5e"/><path d="M1797 3367.76l-4.63-14.26h9.27z" fill="#5e5e5e"/><path d="M1797 3370.92l-5.98-18.4h11.96zm-3.3-16.45l3.3 10.14 3.3-10.13z" stroke="#5e5e5e" stroke-width=".05" fill="#5e5e5e"/><use xlink:href="#P" transform="matrix(1,0,0,1,2088.0442733435943,2151.2447916666665) translate(0.0049999999999954525 17.22222222222222)"/><use xlink:href="#V" transform="matrix(1,0,0,1,2088.0442733435943,2151.2447916666665) translate(97.13173611111112 17.22222222222222)"/><use xlink:href="#W" transform="matrix(1,0,0,1,2088.0442733435943,2151.2447916666665) translate(173.55534722222222 17.22222222222222)"/><path d="M1146.97 3065.96l.07.83.18.75.3.73.42.67.5.6.6.5.68.42.73.3.76.2.84.06h597.83l1.06.08 1.06.26 1 .42.94.57.83.72.7.83.58.93.42 1 .26 1.08.08 1.06v274.54h-1.94v-274.46l-.06-.83-.2-.75-.3-.73-.4-.67-.5-.6-.6-.5-.68-.42-.73-.3-.78-.2-.82-.06h-597.84l-1.05-.08-1.06-.26-1-.42-.94-.57-.83-.72-.7-.83-.6-.93-.4-1-.26-1.08-.07-1.06v-821.8h1.94zm0-843.23h-1.94v-67.48h1.94zm372.62-1036.27l.05.83.18.75.3.73.42.67.5.6.6.5.68.42.73.3.77.2.82.06h139.4l1.04.08 1.06.26 1 .42.94.58.83.7.7.84.6.93.4 1 .26 1.08.07 1.06v657.58l-.08 1.05-.26 1.06-.42 1-.58.94-.7.83-.84.7-.93.6-1 .4-1.08.26-1.06.07h-512l-.83.07-.75.18-.73.3-.67.42-.6.5-.5.6-.42.68-.3.73-.2.76-.06.84v265.7h-1.94v-265.78l.08-1.05.26-1.06.42-1 .58-.94.7-.83.84-.7.93-.6 1-.4 1.08-.26 1.06-.07h512l.83-.07.75-.18.73-.3.67-.42.6-.5.5-.6.42-.68.3-.73.2-.76.06-.84v-657.42l-.07-.83-.18-.75-.3-.73-.42-.67-.5-.6-.6-.5-.68-.42-.73-.3-.76-.2-.84-.06h-139.4l-1.04-.08-1.07-.26-1-.42-.94-.58-.82-.7-.7-.84-.6-.93-.4-1-.26-1.08-.08-1.06v-38.26h1.95zm0-59.7h-1.96V984.55h1.95z" stroke="#5e5e5e" stroke-width=".05" fill="#5e5e5e"/><path d="M1519.6 984.57h-1.96v-.3l1.95-1.46z" fill="#5e5e5e"/><path stroke="#5e5e5e" stroke-width=".05" fill="#5e5e5e"/><path d="M1755.84 3367.76l-4.64-14.26h9.27z" fill="#5e5e5e"/><path d="M1755.84 3370.92l-5.98-18.4h11.95zm-3.3-16.45l3.3 10.14 3.3-10.13z" stroke="#5e5e5e" stroke-width=".05" fill="#5e5e5e"/><use xlink:href="#P" transform="matrix(1,0,0,1,1034.572048611111,2133.7392679383333) translate(0.0049999999999954525 17.22222222222222)"/><use xlink:href="#V" transform="matrix(1,0,0,1,1034.572048611111,2133.7392679383333) translate(97.13173611111112 17.22222222222222)"/><use xlink:href="#W" transform="matrix(1,0,0,1,1034.572048611111,2133.7392679383333) translate(173.55534722222222 17.22222222222222)"/><path d="M2439.3 2462.97H376.05l-.83.07-.75.18-.73.3-.67.42-.6.5-.5.6-.43.68-.3.73-.18.76-.06.84v398l-.1 1.05-.24 1.06-.42 1-.58.94-.7.83-.84.72-.93.57-1 .42-1.08.25-1.06.07h-86.9l-.83.07-.76.18-.73.3-.66.42-.6.5-.5.6-.42.68-.3.73-.2.76-.05.84v46.92l.06.83.2.75.3.73.4.67.5.6.6.5.7.42.7.3.78.2.83.06h28.07l1.06.08 1.06.26 1 .42.94.57.84.72.7.83.58.93.42 1 .26 1.08.08 1.06v15.54h-1.95v-15.46l-.08-.83-.18-.75-.3-.73-.4-.67-.53-.6-.58-.5-.68-.42-.72-.3-.77-.2-.82-.06h-28.07l-1.06-.08-1.06-.26-1-.42-.95-.57-.84-.72-.7-.83-.58-.93-.42-1-.26-1.08-.08-1.06v-47.08l.08-1.05.26-1.06.42-1 .57-.94.7-.83.84-.72.93-.57 1-.42 1.07-.25 1.06-.07h86.9l.83-.07.75-.18.73-.3.67-.42.6-.5.5-.6.43-.68.3-.73.18-.76.06-.84v-398l.1-1.05.24-1.06.42-1 .58-.94.7-.83.84-.72.93-.57 1-.42 1.08-.25 1.06-.07H2439.3zm782.67-6.93l-.08 1.05-.26 1.06-.42 1-.57.94-.72.83-.83.72-.93.57-1 .42-1.08.25-1.06.07h-658.07v-1.94h658l.82-.07.75-.18.73-.3.67-.42.6-.5.5-.6.42-.68.3-.73.2-.76.06-.84v-39.58h1.94zm-398-1532.08l.07.83.18.75.3.73.42.67.5.6.6.5.68.43.73.3.76.18.84.06h386l1.05.1 1.06.24 1 .42.94.58.83.7.72.84.57.93.42 1 .25 1.08.07 1.06v1458.9h-1.94V936.05l-.07-.83-.18-.75-.3-.73-.42-.67-.5-.6-.6-.5-.68-.43-.73-.3-.76-.18-.84-.06h-386l-1.05-.1-1.06-.24-1-.42-.94-.58-.83-.7-.72-.84-.57-.93-.42-1-.25-1.08-.07-1.06v-116.3h1.94z" stroke="#5e5e5e" stroke-width=".05" fill="#5e5e5e"/><path d="M2823.97 807.78h-1.94v-.3l1.94-1.46z" fill="#5e5e5e"/><path stroke="#5e5e5e" stroke-width=".05" fill="#5e5e5e"/><path d="M311.16 2967.76l-4.63-14.26h9.27z" fill="#5e5e5e"/><path d="M311.16 2970.92l-5.97-18.4h11.94zm-3.3-16.45l3.3 10.14 3.3-10.13z" stroke="#5e5e5e" stroke-width=".05" fill="#5e5e5e"/><g><use xlink:href="#X" transform="matrix(1,0,0,1,2439.305598780015,2451.2447916666665) translate(0.005000000000002558 17.22222222222222)"/></g><path d="M188.34 1662.97h-12.3l-.83.07-.75.18-.73.3-.67.42-.6.5-.5.6-.42.68-.3.73-.2.76-.06.84v1197.92l.07.83.18.75.3.73.42.67.5.6.6.5.68.42.73.3.76.2.84.06h86.9l1.06.08 1.06.26 1 .42.95.57.84.72.7.83.58.93.42 1 .26 1.08.08 1.06v47.08l-.08 1.05-.26 1.06-.42 1-.57.94-.7.83-.84.72-.93.57-1 .42-1.07.25-1.06.07h-28.07l-.82.07-.77.18-.72.3-.68.42-.6.5-.5.6-.42.68-.3.73-.18.76-.07.84v15.46h-1.94v-15.54l.08-1.05.26-1.06.42-1 .57-.94.7-.83.84-.72.93-.57 1-.42 1.08-.25 1.05-.07h28.07l.82-.07.76-.18.73-.3.66-.42.6-.5.5-.6.42-.68.3-.73.2-.76.05-.84v-46.92l-.06-.83-.2-.75-.3-.73-.4-.67-.5-.6-.6-.5-.7-.42-.7-.3-.78-.2-.83-.06h-86.9l-1.06-.08-1.06-.26-1-.42-.94-.57-.83-.72-.72-.83-.57-.93-.42-1-.25-1.08-.07-1.06V1667.96l.08-1.05.26-1.06.42-1 .57-.94.72-.83.83-.7.93-.6 1-.4 1.08-.26 1.06-.07h12.38zm469.13-439l.06.82.18.75.3.73.43.67.5.6.6.5.68.42.74.3.76.2.83.06h175.5l1.06.08 1.06.26 1 .42.94.58.83.7.72.84.57.93.42 1 .25 1.08.08 1.06v420.08l-.1 1.05-.24 1.06-.42 1-.58.94-.7.83-.84.7-.93.6-1 .4-1.08.26-1.06.07H347.06v-1.94h490.9l.83-.07.75-.18.73-.3.67-.42.6-.5.5-.6.43-.68.3-.73.18-.76.06-.84v-419.92l-.06-.83-.18-.75-.3-.73-.42-.67-.5-.6-.6-.5-.68-.42-.73-.3-.76-.2-.84-.06h-175.5l-1.06-.08-1.07-.26-1-.42-.94-.58-.84-.7-.7-.84-.6-.93-.4-1-.26-1.08-.1-1.06v-94.64h1.97zm40.9-268.9l-.1 1.06-.25 1.07-.4 1-.6.94-.7.84-.83.7-.94.58-1 .42-1.08.25-1.05.1h-28.9l-.83.05-.76.18-.73.3-.66.42-.6.5-.5.6-.43.68-.3.73-.17.76-.06.82v140.8h-1.96V967l.1-1.05.25-1.07.42-1 .58-.94.7-.83.84-.7.92-.58 1-.42 1.08-.25 1.05-.08h28.9l.82-.07.77-.18.73-.3.67-.42.6-.5.5-.6.42-.68.3-.73.2-.77.05-.83v-32.96h1.96z" stroke="#5e5e5e" stroke-width=".05" fill="#5e5e5e"/><path d="M698.36 921.77v.3h-1.95v-1.76z" fill="#5e5e5e"/><path stroke="#5e5e5e" stroke-width=".05" fill="#5e5e5e"/><path d="M228.84 2967.76l-4.64-14.26h9.27z" fill="#5e5e5e"/><path d="M228.84 2970.92l-5.98-18.4h11.95zm-3.3-16.45l3.3 10.14 3.3-10.13z" stroke="#5e5e5e" stroke-width=".05" fill="#5e5e5e"/><g><use xlink:href="#Y" transform="matrix(1,0,0,1,188.33469379480954,1651.2447916666667) translate(0.0049999999999954525 17.22222222222222)"/><use xlink:href="#Z" transform="matrix(1,0,0,1,188.33469379480954,1651.2447916666667) translate(57.92166666666666 17.22222222222222)"/><use xlink:href="#aa" transform="matrix(1,0,0,1,188.33469379480954,1651.2447916666667) translate(103.13868055555555 17.22222222222222)"/></g><path d="M583.93 1762.97h-307.9l-.82.07-.75.18-.73.3-.67.42-.6.5-.5.6-.43.68-.3.73-.18.76-.06.84V2952.5h-1.96V1767.96l.1-1.05.24-1.06.42-1 .58-.94.7-.83.84-.7.93-.6 1-.4 1.08-.26 1.06-.07h307.97zm891.42-676.43l-.08 1.05-.26 1.06-.4 1-.58.94-.7.83-.84.7-.94.6-1 .4-1.07.26-1.06.07h-155.36l-.83.07-.75.18-.73.3-.67.42-.6.5-.5.6-.42.68-.3.73-.2.76-.06.84v657.5l-.08 1.05-.26 1.06-.42 1-.58.94-.7.83-.84.7-.93.6-1 .4-1.08.26-1.06.07H742.66v-1.94h558.3l.83-.07.75-.18.73-.3.67-.42.6-.5.5-.6.42-.68.3-.73.2-.76.06-.84v-657.5l.08-1.05.26-1.06.42-1 .58-.94.7-.83.84-.7.93-.6 1-.4 1.08-.26 1.06-.07h155.38l.82-.07.77-.18.72-.3.68-.42.6-.5.5-.6.42-.68.3-.73.18-.76.07-.84V971.78h1.95z" stroke="#5e5e5e" stroke-width=".05" fill="#5e5e5e"/><path d="M1475.35 971.5v.3h-1.95v-1.75z" fill="#5e5e5e"/><path stroke="#5e5e5e" stroke-width=".05" fill="#5e5e5e"/><path d="M270 2967.76l-4.63-14.26h9.26z" fill="#5e5e5e"/><path d="M270 2970.92l-5.98-18.4h11.96zm-3.3-16.45l3.3 10.14 3.3-10.13z" stroke="#5e5e5e" stroke-width=".05" fill="#5e5e5e"/><g><use xlink:href="#Y" transform="matrix(1,0,0,1,583.9349034091455,1751.2447916666667) translate(0.0049999999999954525 17.22222222222222)"/><use xlink:href="#Z" transform="matrix(1,0,0,1,583.9349034091455,1751.2447916666667) translate(57.92166666666666 17.22222222222222)"/><use xlink:href="#aa" transform="matrix(1,0,0,1,583.9349034091455,1751.2447916666667) translate(103.13868055555555 17.22222222222222)"/></g><path d="M241.97 1062.5h-1.94v-69.75h1.94zm0-91.25h-1.94V884h1.94z" stroke="#5e5e5e" stroke-width=".05" fill="#5e5e5e"/><path d="M241.97 884.03h-1.94V883h1.94z" fill="#5e5e5e"/><path stroke="#5e5e5e" stroke-width=".05" fill="#5e5e5e"/><path d="M241 1077.76l-4.63-14.26h9.26z" fill="#5e5e5e"/><path d="M241 1080.92l-5.98-18.4h11.96zm-3.3-16.45l3.3 10.14 3.3-10.13z" stroke="#5e5e5e" stroke-width=".05" fill="#5e5e5e"/><g><use xlink:href="#X" transform="matrix(1,0,0,1,182.16753472222223,971.2447916666666) translate(0.005000000000002558 17.22222222222222)"/></g><path d="M2113.97 1260.5h-1.94v-129.83h1.94zm12.78-151.34h-1.95V961.83h1.95z" stroke="#5e5e5e" stroke-width=".05" fill="#5e5e5e"/><path d="M2126.75 961.57v.3h-1.95v-1.77z" fill="#5e5e5e"/><path stroke="#5e5e5e" stroke-width=".05" fill="#5e5e5e"/><path d="M2113 1275.76l-4.64-14.26h9.28z" fill="#5e5e5e"/><path d="M2113 1278.92l-5.98-18.4h11.96zm-3.3-16.45l3.3 10.14 3.3-10.13z" stroke="#5e5e5e" stroke-width=".05" fill="#5e5e5e"/><g><use xlink:href="#X" transform="matrix(1,0,0,1,2060.55643744995,1109.1614625750744) translate(0.005000000000002558 17.22222222222222)"/></g><path d="M663.98 1310.5H662v-181.1H664zm17.37-202.62h-1.95V909.3h1.95z" stroke="#5e5e5e" stroke-width=".05" fill="#5e5e5e"/><path d="M681.35 909v.3h-1.95v-1.75z" fill="#5e5e5e"/><path stroke="#5e5e5e" stroke-width=".05" fill="#5e5e5e"/><path d="M663 1325.76l-4.63-14.26h9.26z" fill="#5e5e5e"/><path d="M663 1328.92l-5.98-18.4h11.96zm-3.3-16.45l3.3 10.14 3.3-10.13z" stroke="#5e5e5e" stroke-width=".05" fill="#5e5e5e"/><g><use xlink:href="#X" transform="matrix(1,0,0,1,612.8550492003608,1107.8854235689932) translate(0.005000000000002558 17.22222222222222)"/></g><path d="M2737.97 1310.5h-1.94v-231.87h1.94zm20.67-253.38h-1.95V807.75h1.94z" stroke="#5e5e5e" stroke-width=".05" fill="#5e5e5e"/><path d="M2758.64 807.48v.3h-1.95v-1.76z" fill="#5e5e5e"/><path stroke="#5e5e5e" stroke-width=".05" fill="#5e5e5e"/><path d="M2737 1325.76l-4.64-14.26h9.28z" fill="#5e5e5e"/><path d="M2737 1328.92l-5.98-18.4h11.96zm-3.3-16.45l3.3 10.14 3.3-10.13z" stroke="#5e5e5e" stroke-width=".05" fill="#5e5e5e"/><g><use xlink:href="#X" transform="matrix(1,0,0,1,2688.500882800948,1057.1198000781) translate(0.005000000000002558 17.22222222222222)"/></g><path d="M1489.97 1273h-1.94v-124.72h1.94zm2.4-146.23h-1.96V984.54h1.96z" stroke="#5e5e5e" stroke-width=".05" fill="#5e5e5e"/><path d="M1492.36 984.27v.3h-1.95v-1.76z" fill="#5e5e5e"/><path stroke="#5e5e5e" stroke-width=".05" fill="#5e5e5e"/><path d="M1489 1288.26l-4.63-14.26h9.27z" fill="#5e5e5e"/><path d="M1489 1291.42l-5.98-18.4h11.96zm-3.3-16.45l3.3 10.14 3.3-10.13z" stroke="#5e5e5e" stroke-width=".05" fill="#5e5e5e"/><g><use xlink:href="#X" transform="matrix(1,0,0,1,1431.3619880248505,1126.76561678181) translate(0.005000000000002558 17.22222222222222)"/></g><defs><path fill="#fff" d="M52 0l541-1490h220L1361 0h-200l-149-416H398L254 0H52zm404-582h497c-103-290-145-390-251-756-108 377-145 460-246 756" id="ab"/><path fill="#fff" d="M180 0v-1490h510c348 0 508 209 508 474 0 266-160 477-507 477H370V0H180zm190-706h312c236 0 327-133 327-310 0-176-91-307-329-307H370v617" id="ac"/><path fill="#fff" d="M370-1490V0H180v-1490h190" id="ad"/><g id="a"><use transform="matrix(0.010850694444444444,0,0,0.010850694444444444,0,0)" xlink:href="#ab"/><use transform="matrix(0.010850694444444444,0,0,0.010850694444444444,15.33203125,0)" xlink:href="#ac"/><use transform="matrix(0.010850694444444444,0,0,0.010850694444444444,29.524739583333332,0)" xlink:href="#ad"/></g><path fill="#fff" d="M789 20c-398 0-667-293-667-764 0-473 273-766 655-766 315 0 558 198 612 487h-196c-61-191-204-311-415-311-262 0-471 207-471 590 0 380 208 588 482 588 249 0 420-165 425-427H828v-166h572v163c0 370-256 606-611 606" id="ae"/><path fill="#fff" d="M471 26C259 26 90-98 90-318c0-256 228-303 435-329 202-27 287-16 287-108 0-139-79-219-234-219-161 0-248 86-283 164l-173-57c86-203 278-265 451-265 150 0 419 46 419 395V0H815v-152h-12C765-73 660 26 471 26zm31-159c199 0 310-134 310-271v-155c-30 35-226 55-295 64-131 17-246 59-246 186 0 116 97 176 231 176" id="af"/><path fill="#fff" d="M598-1118v154H368v674c0 100 37 144 132 144 23 0 62-6 92-12L629-6c-37 13-88 20-134 20-193 0-307-107-307-290v-688H20v-154h168v-266h180v266h230" id="ag"/><path fill="#fff" d="M628 24c-324 0-524-230-524-574 0-343 198-582 503-582 237 0 487 146 487 559v75H286c9 234 145 362 343 362 132 0 231-58 273-172l174 48C1024-91 857 24 628 24zM287-650h624c-17-190-120-322-304-322-192 0-309 151-320 322" id="ah"/><path fill="#fff" d="M409 0L70-1118h191c89 329 165 560 243 925 75-353 154-601 240-925h192c85 325 161 564 235 922 77-354 157-598 244-922h191L1267 0h-179c-86-307-176-590-250-913C763-588 675-308 588 0H409" id="ai"/><path fill="#fff" d="M140 405l46-156c120 36 205 19 263-150l32-93L54-1118h197c107 313 237 620 324 950 87-331 219-637 326-950h196L606 167c-68 178-176 259-334 259-64 0-113-12-132-21" id="aj"/><g id="b"><use transform="matrix(0.010850694444444444,0,0,0.010850694444444444,0,0)" xlink:href="#ae"/><use transform="matrix(0.010850694444444444,0,0,0.010850694444444444,16.57986111111111,0)" xlink:href="#af"/><use transform="matrix(0.010850694444444444,0,0,0.010850694444444444,29.05815972222222,0)" xlink:href="#ag"/><use transform="matrix(0.010850694444444444,0,0,0.010850694444444444,36.11111111111111,0)" xlink:href="#ah"/><use transform="matrix(0.010850694444444444,0,0,0.010850694444444444,48.66536458333333,0)" xlink:href="#ai"/><use transform="matrix(0.010850694444444444,0,0,0.010850694444444444,66.85112847222221,0)" xlink:href="#af"/><use transform="matrix(0.010850694444444444,0,0,0.010850694444444444,79.00390625,0)" xlink:href="#aj"/></g><path fill="#fff" d="M763 24c-353 0-583-224-583-531v-983h190v968c0 214 149 370 393 370 243 0 391-156 391-370v-968h190v983c0 307-230 531-581 531" id="ak"/><path fill="#fff" d="M538 24C308 24 148-78 108-271l171-41c32 123 123 178 257 178 156 0 256-77 256-169 0-77-54-128-164-154l-186-44c-203-48-300-148-300-305 0-192 176-326 414-326 230 0 351 112 402 269l-163 42c-31-80-94-158-238-158-133 0-233 69-233 162 0 83 57 129 188 160l169 40c203 48 298 149 298 302 0 196-179 339-441 339" id="al"/><path fill="#fff" d="M158 0v-1118h174v172h12c41-113 157-188 290-188 26 0 70 2 91 3v181c-11-2-60-10-108-10-161 0-279 109-279 260V0H158" id="am"/><g id="c"><use transform="matrix(0.010850694444444444,0,0,0.010850694444444444,0,0)" xlink:href="#ak"/><use transform="matrix(0.010850694444444444,0,0,0.010850694444444444,16.536458333333332,0)" xlink:href="#al"/><use transform="matrix(0.010850694444444444,0,0,0.010850694444444444,28.266059027777775,0)" xlink:href="#ah"/><use transform="matrix(0.010850694444444444,0,0,0.010850694444444444,41.22178819444444,0)" xlink:href="#am"/></g><path fill="#fff" d="M180 0v-1490h270l367 940c28 72 75 218 110 339 35-117 81-264 110-339l362-940h271V0h-187c2-448-5-837 7-1287-157 497-311 829-483 1287H842C666-458 514-784 354-1284c12 438 5 843 7 1284H180" id="an"/><path fill="#fff" d="M338-670V0H158v-1118h173l1 207c72-158 192-221 342-221 226 0 378 139 378 422V0H872v-695c0-172-96-275-252-275-161 0-282 109-282 300" id="ao"/><path fill="#fff" d="M611 442c-248 0-391-105-460-228l146-94c47 65 117 165 314 165 178 0 307-82 307-266v-224h-17C863-141 792-18 576-18c-268 0-472-195-472-546 0-346 197-568 476-568 216 0 288 133 326 193h17v-179h175V29c0 289-215 413-487 413zm-5-620c203 0 314-146 314-390 0-237-108-403-314-403-213 0-319 180-319 403 0 230 109 390 319 390" id="ap"/><path fill="#fff" d="M158 0v-1118h175l1 205c55-151 181-225 313-225 147 0 245 90 285 228 53-141 190-228 352-228 194 0 352 125 352 384V0h-181v-749c0-161-105-225-225-225-151 0-243 103-243 244V0H807v-767c0-124-93-207-219-207-131 0-250 92-250 270V0H158" id="aq"/><g id="d"><use transform="matrix(0.010850694444444444,0,0,0.010850694444444444,0,0)" xlink:href="#an"/><use transform="matrix(0.010850694444444444,0,0,0.010850694444444444,20.07378472222222,0)" xlink:href="#af"/><use transform="matrix(0.010850694444444444,0,0,0.010850694444444444,32.55208333333333,0)" xlink:href="#ao"/><use transform="matrix(0.010850694444444444,0,0,0.010850694444444444,45.68142361111111,0)" xlink:href="#af"/><use transform="matrix(0.010850694444444444,0,0,0.010850694444444444,58.15972222222221,0)" xlink:href="#ap"/><use transform="matrix(0.010850694444444444,0,0,0.010850694444444444,71.78819444444443,0)" xlink:href="#ah"/><use transform="matrix(0.010850694444444444,0,0,0.010850694444444444,84.7439236111111,0)" xlink:href="#aq"/><use transform="matrix(0.010850694444444444,0,0,0.010850694444444444,104.21006944444441,0)" xlink:href="#ah"/><use transform="matrix(0.010850694444444444,0,0,0.010850694444444444,117.1657986111111,0)" xlink:href="#ao"/><use transform="matrix(0.010850694444444444,0,0,0.010850694444444444,130.29513888888889,0)" xlink:href="#ag"/></g><path fill="#fff" d="M657 26c-323 0-524-166-541-416h195c15 169 171 246 346 246 202 0 356-106 356-265 5-203-294-238-475-293-239-73-380-191-380-389 0-252 224-419 512-419 294 0 499 171 508 396H992c-17-145-151-228-328-228-193 0-321 102-321 242 0 156 175 211 284 241l149 41c160 44 422 134 422 412 0 244-197 432-541 432" id="ar"/><path fill="#fff" d="M481 0L54-1118h197c107 314 236 620 325 951 87-331 217-637 324-951h197L670 0H481" id="as"/><path fill="#fff" d="M158 0v-1118h180V0H158zm91-1301c-68 0-125-53-125-119s57-119 125-119c69 0 126 53 126 119s-57 119-126 119" id="at"/><path fill="#fff" d="M613 24c-304 0-509-231-509-576 0-350 205-580 509-580 216 0 392 114 453 309l-173 49c-33-115-133-197-280-197-223 0-326 196-326 419 0 220 103 415 326 415 150 0 252-85 285-206l172 49C1010-95 832 24 613 24" id="au"/><g id="e"><use transform="matrix(0.010850694444444444,0,0,0.010850694444444444,0,0)" xlink:href="#ar"/><use transform="matrix(0.010850694444444444,0,0,0.010850694444444444,14.2578125,0)" xlink:href="#ah"/><use transform="matrix(0.010850694444444444,0,0,0.010850694444444444,27.213541666666664,0)" xlink:href="#am"/><use transform="matrix(0.010850694444444444,0,0,0.010850694444444444,35.92664930555555,0)" xlink:href="#as"/><use transform="matrix(0.010850694444444444,0,0,0.010850694444444444,48.41579861111111,0)" xlink:href="#at"/><use transform="matrix(0.010850694444444444,0,0,0.010850694444444444,53.79774305555556,0)" xlink:href="#au"/><use transform="matrix(0.010850694444444444,0,0,0.010850694444444444,66.49305555555554,0)" xlink:href="#ah"/></g><path fill="#fff" d="M338-670V0H158v-1490h180v566c73-149 190-208 336-208 226 0 379 139 379 422V0H872v-695c0-172-96-275-252-275-161 0-282 109-282 300" id="av"/><path fill="#fff" d="M158 418v-1536h174v179h20c37-59 106-193 324-193 279 0 474 222 474 576 0 356-194 580-473 580-213 0-288-135-325-197h-14v591H158zm492-555c209 0 317-186 317-421 0-232-105-413-317-413-206 0-314 166-314 413 0 249 111 421 314 421" id="aw"/><g id="f"><use transform="matrix(0.010850694444444444,0,0,0.010850694444444444,0,0)" xlink:href="#ar"/><use transform="matrix(0.010850694444444444,0,0,0.010850694444444444,14.2578125,0)" xlink:href="#av"/><use transform="matrix(0.010850694444444444,0,0,0.010850694444444444,27.39800347222222,0)" xlink:href="#at"/><use transform="matrix(0.010850694444444444,0,0,0.010850694444444444,32.779947916666664,0)" xlink:href="#aw"/><use transform="matrix(0.010850694444444444,0,0,0.010850694444444444,46.38671875,0)" xlink:href="#aq"/><use transform="matrix(0.010850694444444444,0,0,0.010850694444444444,65.85286458333333,0)" xlink:href="#ah"/><use transform="matrix(0.010850694444444444,0,0,0.010850694444444444,78.80859375,0)" xlink:href="#ao"/><use transform="matrix(0.010850694444444444,0,0,0.010850694444444444,91.93793402777777,0)" xlink:href="#ag"/></g><path fill="#fff" d="M645 0H180v-1490h484c435 0 692 280 692 742 0 466-257 748-711 748zM370-168h263c363 0 539-218 539-580 0-358-176-574-521-574H370v1154" id="ax"/><g id="g"><use transform="matrix(0.010850694444444444,0,0,0.010850694444444444,0,0)" xlink:href="#ax"/><use transform="matrix(0.010850694444444444,0,0,0.010850694444444444,16.03732638888889,0)" xlink:href="#at"/><use transform="matrix(0.010850694444444444,0,0,0.010850694444444444,21.419270833333336,0)" xlink:href="#al"/><use transform="matrix(0.010850694444444444,0,0,0.010850694444444444,33.14887152777778,0)" xlink:href="#aw"/><use transform="matrix(0.010850694444444444,0,0,0.010850694444444444,46.97265625,0)" xlink:href="#af"/><use transform="matrix(0.010850694444444444,0,0,0.010850694444444444,59.45095486111112,0)" xlink:href="#ag"/><use transform="matrix(0.010850694444444444,0,0,0.010850694444444444,66.50390625,0)" xlink:href="#au"/><use transform="matrix(0.010850694444444444,0,0,0.010850694444444444,79.19921875,0)" xlink:href="#av"/></g><g id="h"><use transform="matrix(0.010850694444444444,0,0,0.010850694444444444,0,0)" xlink:href="#ax"/><use transform="matrix(0.010850694444444444,0,0,0.010850694444444444,16.03732638888889,0)" xlink:href="#am"/><use transform="matrix(0.010850694444444444,0,0,0.010850694444444444,24.75043402777778,0)" xlink:href="#at"/><use transform="matrix(0.010850694444444444,0,0,0.010850694444444444,30.13237847222222,0)" xlink:href="#as"/><use transform="matrix(0.010850694444444444,0,0,0.010850694444444444,42.1875,0)" xlink:href="#ah"/><use transform="matrix(0.010850694444444444,0,0,0.010850694444444444,55.143229166666664,0)" xlink:href="#am"/></g><path fill="#fff" d="M784 20c-382 0-662-292-662-764 0-473 280-766 662-766s660 293 660 766c0 472-278 764-660 764zm0-176c266 0 475-207 475-588 0-383-209-590-475-590-268 0-477 208-477 590 0 380 209 588 477 588" id="ay"/><path fill="#fff" d="M613 24c-304 0-509-231-509-576 0-350 205-580 509-580 305 0 511 230 511 580 0 345-206 576-511 576zm0-161c226 0 329-195 329-415 0-222-103-419-329-419-223 0-326 196-326 419 0 220 103 415 326 415" id="az"/><g id="i"><use transform="matrix(0.010850694444444444,0,0,0.010850694444444444,0,0)" xlink:href="#ay"/><use transform="matrix(0.010850694444444444,0,0,0.010850694444444444,16.9921875,0)" xlink:href="#aw"/><use transform="matrix(0.010850694444444444,0,0,0.010850694444444444,30.598958333333332,0)" xlink:href="#ah"/><use transform="matrix(0.010850694444444444,0,0,0.010850694444444444,43.5546875,0)" xlink:href="#am"/><use transform="matrix(0.010850694444444444,0,0,0.010850694444444444,51.920572916666664,0)" xlink:href="#af"/><use transform="matrix(0.010850694444444444,0,0,0.010850694444444444,64.39887152777777,0)" xlink:href="#ag"/><use transform="matrix(0.010850694444444444,0,0,0.010850694444444444,71.66883680555554,0)" xlink:href="#at"/><use transform="matrix(0.010850694444444444,0,0,0.010850694444444444,77.05078124999999,0)" xlink:href="#az"/><use transform="matrix(0.010850694444444444,0,0,0.010850694444444444,90.37543402777776,0)" xlink:href="#ao"/><use transform="matrix(0.010850694444444444,0,0,0.010850694444444444,103.50477430555553,0)" xlink:href="#al"/></g><path fill="#fff" d="M98-1322v-168h1126v168H757V0H567v-1322H98" id="aA"/><path fill="#fff" d="M158 0v-1490h180v865h22l478-493h223L593-638 1096 0H865L456-523 338-412V0H158" id="aB"/><g id="j"><use transform="matrix(0.010850694444444444,0,0,0.010850694444444444,0,0)" xlink:href="#aA"/><use transform="matrix(0.010850694444444444,0,0,0.010850694444444444,13.0859375,0)" xlink:href="#am"/><use transform="matrix(0.010850694444444444,0,0,0.010850694444444444,21.451822916666664,0)" xlink:href="#af"/><use transform="matrix(0.010850694444444444,0,0,0.010850694444444444,33.93012152777777,0)" xlink:href="#au"/><use transform="matrix(0.010850694444444444,0,0,0.010850694444444444,46.62543402777778,0)" xlink:href="#aB"/><use transform="matrix(0.010850694444444444,0,0,0.010850694444444444,58.82161458333333,0)" xlink:href="#at"/><use transform="matrix(0.010850694444444444,0,0,0.010850694444444444,64.20355902777777,0)" xlink:href="#ao"/><use transform="matrix(0.010850694444444444,0,0,0.010850694444444444,77.33289930555554,0)" xlink:href="#ap"/></g><path fill="#fff" d="M180 0v-1490h510c348 0 508 194 508 460 0 198-88 351-276 417L1256 0h-220L726-579c-117 2-238 0-356 1V0H180zm190-747h312c235 0 327-108 327-283 0-177-92-293-329-293H370v576" id="aC"/><path fill="#fff" d="M577 24c-279 0-473-224-473-580 0-354 195-576 474-576 218 0 287 134 324 193h14v-551h180V0H922v-173h-20C865-111 790 24 577 24zm27-161c203 0 314-172 314-421 0-247-108-413-314-413-212 0-317 181-317 413 0 235 108 421 317 421" id="aD"/><g id="k"><use transform="matrix(0.010850694444444444,0,0,0.010850694444444444,0,0)" xlink:href="#aC"/><use transform="matrix(0.010850694444444444,0,0,0.010850694444444444,13.975694444444445,0)" xlink:href="#ah"/><use transform="matrix(0.010850694444444444,0,0,0.010850694444444444,26.931423611111104,0)" xlink:href="#aD"/><use transform="matrix(0.010850694444444444,0,0,0.010850694444444444,40.53819444444444,0)" xlink:href="#at"/><use transform="matrix(0.010850694444444444,0,0,0.010850694444444444,45.920138888888886,0)" xlink:href="#al"/></g><path fill="#fff" d="M783 20c-382 0-661-292-661-764 0-473 279-766 661-766 302 0 548 182 601 489h-190c-42-204-217-313-411-313-268 0-476 208-476 590 0 381 209 588 476 588 195 0 369-110 411-313h190c-52 303-296 489-601 489" id="aE"/><g id="l"><use transform="matrix(0.010850694444444444,0,0,0.010850694444444444,0,0)" xlink:href="#aE"/><use transform="matrix(0.010850694444444444,0,0,0.010850694444444444,16.23263888888889,0)" xlink:href="#af"/><use transform="matrix(0.010850694444444444,0,0,0.010850694444444444,28.7109375,0)" xlink:href="#au"/><use transform="matrix(0.010850694444444444,0,0,0.010850694444444444,41.40625,0)" xlink:href="#av"/><use transform="matrix(0.010850694444444444,0,0,0.010850694444444444,54.54644097222222,0)" xlink:href="#ah"/></g><path fill="#fff" d="M180 0v-1490h190c0 262 1 526-3 784 217-279 467-523 702-784h249L716-845 1319 0h-225L585-716 370-489V0H180" id="aF"/><path fill="#fff" d="M678-1118v154H420V0H240v-964H20v-154h220v-149c0-194 155-293 318-293 85 0 141 18 168 30l-50 154c-19-6-47-17-97-17-111 0-159 58-159 166v109h258" id="aG"/><g id="m"><use transform="matrix(0.010850694444444444,0,0,0.010850694444444444,0,0)" xlink:href="#aF"/><use transform="matrix(0.010850694444444444,0,0,0.010850694444444444,14.930555555555555,0)" xlink:href="#af"/><use transform="matrix(0.010850694444444444,0,0,0.010850694444444444,27.408854166666664,0)" xlink:href="#aG"/><use transform="matrix(0.010850694444444444,0,0,0.010850694444444444,35.63368055555556,0)" xlink:href="#aB"/><use transform="matrix(0.010850694444444444,0,0,0.010850694444444444,47.82986111111111,0)" xlink:href="#af"/></g><path d="M52 0l541-1490h220L1361 0h-200l-149-416H398L254 0H52zm404-582h497c-103-290-145-390-251-756-108 377-145 460-246 756" id="aH"/><path d="M180 0v-1490h510c348 0 508 209 508 474 0 266-160 477-507 477H370V0H180zm190-706h312c236 0 327-133 327-310 0-176-91-307-329-307H370v617" id="aI"/><path d="M370-1490V0H180v-1490h190" id="aJ"/><g id="n"><use transform="matrix(0.010850694444444444,0,0,0.010850694444444444,0,0)" xlink:href="#aH"/><use transform="matrix(0.010850694444444444,0,0,0.010850694444444444,15.33203125,0)" xlink:href="#aI"/><use transform="matrix(0.010850694444444444,0,0,0.010850694444444444,29.524739583333332,0)" xlink:href="#aJ"/></g><path d="M789 20c-398 0-667-293-667-764 0-473 273-766 655-766 315 0 558 198 612 487h-196c-61-191-204-311-415-311-262 0-471 207-471 590 0 380 208 588 482 588 249 0 420-165 425-427H828v-166h572v163c0 370-256 606-611 606" id="aK"/><path d="M471 26C259 26 90-98 90-318c0-256 228-303 435-329 202-27 287-16 287-108 0-139-79-219-234-219-161 0-248 86-283 164l-173-57c86-203 278-265 451-265 150 0 419 46 419 395V0H815v-152h-12C765-73 660 26 471 26zm31-159c199 0 310-134 310-271v-155c-30 35-226 55-295 64-131 17-246 59-246 186 0 116 97 176 231 176" id="aL"/><path d="M598-1118v154H368v674c0 100 37 144 132 144 23 0 62-6 92-12L629-6c-37 13-88 20-134 20-193 0-307-107-307-290v-688H20v-154h168v-266h180v266h230" id="aM"/><path d="M628 24c-324 0-524-230-524-574 0-343 198-582 503-582 237 0 487 146 487 559v75H286c9 234 145 362 343 362 132 0 231-58 273-172l174 48C1024-91 857 24 628 24zM287-650h624c-17-190-120-322-304-322-192 0-309 151-320 322" id="aN"/><path d="M409 0L70-1118h191c89 329 165 560 243 925 75-353 154-601 240-925h192c85 325 161 564 235 922 77-354 157-598 244-922h191L1267 0h-179c-86-307-176-590-250-913C763-588 675-308 588 0H409" id="aO"/><path d="M140 405l46-156c120 36 205 19 263-150l32-93L54-1118h197c107 313 237 620 324 950 87-331 219-637 326-950h196L606 167c-68 178-176 259-334 259-64 0-113-12-132-21" id="aP"/><g id="o"><use transform="matrix(0.010850694444444444,0,0,0.010850694444444444,0,0)" xlink:href="#aK"/><use transform="matrix(0.010850694444444444,0,0,0.010850694444444444,16.57986111111111,0)" xlink:href="#aL"/><use transform="matrix(0.010850694444444444,0,0,0.010850694444444444,29.05815972222222,0)" xlink:href="#aM"/><use transform="matrix(0.010850694444444444,0,0,0.010850694444444444,36.11111111111111,0)" xlink:href="#aN"/><use transform="matrix(0.010850694444444444,0,0,0.010850694444444444,48.66536458333333,0)" xlink:href="#aO"/><use transform="matrix(0.010850694444444444,0,0,0.010850694444444444,66.85112847222221,0)" xlink:href="#aL"/><use transform="matrix(0.010850694444444444,0,0,0.010850694444444444,79.00390625,0)" xlink:href="#aP"/></g><path d="M180 0v-1490h270l367 940c28 72 75 218 110 339 35-117 81-264 110-339l362-940h271V0h-187c2-448-5-837 7-1287-157 497-311 829-483 1287H842C666-458 514-784 354-1284c12 438 5 843 7 1284H180" id="aQ"/><path d="M657 26c-323 0-524-166-541-416h195c15 169 171 246 346 246 202 0 356-106 356-265 5-203-294-238-475-293-239-73-380-191-380-389 0-252 224-419 512-419 294 0 499 171 508 396H992c-17-145-151-228-328-228-193 0-321 102-321 242 0 156 175 211 284 241l149 41c160 44 422 134 422 412 0 244-197 432-541 432" id="aR"/><path d="M784 20c-382 0-662-292-662-764 0-473 280-766 662-766s660 293 660 766c0 282-99 499-260 629l192 255h-198L1049-33C969 2 880 20 784 20zm-62-486h198l156 205c112-98 183-261 183-483 0-383-209-590-475-590-268 0-477 208-477 590 0 380 209 588 477 588 54 0 106-9 154-25" id="aS"/><path d="M180 0v-1490h190v1322h690V0H180" id="aT"/><g id="p"><use transform="matrix(0.010850694444444444,0,0,0.010850694444444444,0,0)" xlink:href="#aQ"/><use transform="matrix(0.010850694444444444,0,0,0.010850694444444444,20.182291666666664,0)" xlink:href="#aP"/><use transform="matrix(0.010850694444444444,0,0,0.010850694444444444,32.67144097222222,0)" xlink:href="#aR"/><use transform="matrix(0.010850694444444444,0,0,0.010850694444444444,46.92925347222222,0)" xlink:href="#aS"/><use transform="matrix(0.010850694444444444,0,0,0.010850694444444444,63.92144097222222,0)" xlink:href="#aT"/></g><path d="M798-719v166H144v-166h654" id="aU"/><use transform="matrix(0.010850694444444444,0,0,0.010850694444444444,0,0)" xlink:href="#aU" id="q"/><path d="M763 24c-353 0-583-224-583-531v-983h190v968c0 214 149 370 393 370 243 0 391-156 391-370v-968h190v983c0 307-230 531-581 531" id="aV"/><path d="M538 24C308 24 148-78 108-271l171-41c32 123 123 178 257 178 156 0 256-77 256-169 0-77-54-128-164-154l-186-44c-203-48-300-148-300-305 0-192 176-326 414-326 230 0 351 112 402 269l-163 42c-31-80-94-158-238-158-133 0-233 69-233 162 0 83 57 129 188 160l169 40c203 48 298 149 298 302 0 196-179 339-441 339" id="aW"/><path d="M158 0v-1118h174v172h12c41-113 157-188 290-188 26 0 70 2 91 3v181c-11-2-60-10-108-10-161 0-279 109-279 260V0H158" id="aX"/><g id="r"><use transform="matrix(0.010850694444444444,0,0,0.010850694444444444,0,0)" xlink:href="#aV"/><use transform="matrix(0.010850694444444444,0,0,0.010850694444444444,16.536458333333332,0)" xlink:href="#aW"/><use transform="matrix(0.010850694444444444,0,0,0.010850694444444444,28.266059027777775,0)" xlink:href="#aN"/><use transform="matrix(0.010850694444444444,0,0,0.010850694444444444,41.22178819444444,0)" xlink:href="#aX"/></g><path d="M645 0H180v-1490h484c435 0 692 280 692 742 0 466-257 748-711 748zM370-168h263c363 0 539-218 539-580 0-358-176-574-521-574H370v1154" id="aY"/><path d="M180 0v-1490h528c311 0 458 177 458 395 0 191-114 278-244 313v14c139 9 302 137 302 371 0 225-148 397-499 397H180zm190-168h350c232 0 321-102 321-231 0-149-120-277-311-277H370v508zm0-668h328c160 0 286-101 286-255 0-129-87-231-280-231H370v486" id="aZ"/><g id="s"><use transform="matrix(0.010850694444444444,0,0,0.010850694444444444,0,0)" xlink:href="#aY"/><use transform="matrix(0.010850694444444444,0,0,0.010850694444444444,16.03732638888889,0)" xlink:href="#aZ"/></g><g id="t"><use transform="matrix(0.010850694444444444,0,0,0.010850694444444444,0,0)" xlink:href="#aV"/><use transform="matrix(0.010850694444444444,0,0,0.010850694444444444,16.536458333333332,0)" xlink:href="#aW"/><use transform="matrix(0.010850694444444444,0,0,0.010850694444444444,28.266059027777775,0)" xlink:href="#aN"/><use transform="matrix(0.010850694444444444,0,0,0.010850694444444444,41.22178819444444,0)" xlink:href="#aX"/></g><path d="M338-670V0H158v-1118h173l1 207c72-158 192-221 342-221 226 0 378 139 378 422V0H872v-695c0-172-96-275-252-275-161 0-282 109-282 300" id="ba"/><path d="M611 442c-248 0-391-105-460-228l146-94c47 65 117 165 314 165 178 0 307-82 307-266v-224h-17C863-141 792-18 576-18c-268 0-472-195-472-546 0-346 197-568 476-568 216 0 288 133 326 193h17v-179h175V29c0 289-215 413-487 413zm-5-620c203 0 314-146 314-390 0-237-108-403-314-403-213 0-319 180-319 403 0 230 109 390 319 390" id="bb"/><path d="M158 0v-1118h175l1 205c55-151 181-225 313-225 147 0 245 90 285 228 53-141 190-228 352-228 194 0 352 125 352 384V0h-181v-749c0-161-105-225-225-225-151 0-243 103-243 244V0H807v-767c0-124-93-207-219-207-131 0-250 92-250 270V0H158" id="bc"/><g id="u"><use transform="matrix(0.010850694444444444,0,0,0.010850694444444444,0,0)" xlink:href="#aQ"/><use transform="matrix(0.010850694444444444,0,0,0.010850694444444444,20.07378472222222,0)" xlink:href="#aL"/><use transform="matrix(0.010850694444444444,0,0,0.010850694444444444,32.55208333333333,0)" xlink:href="#ba"/><use transform="matrix(0.010850694444444444,0,0,0.010850694444444444,45.68142361111111,0)" xlink:href="#aL"/><use transform="matrix(0.010850694444444444,0,0,0.010850694444444444,58.15972222222221,0)" xlink:href="#bb"/><use transform="matrix(0.010850694444444444,0,0,0.010850694444444444,71.78819444444443,0)" xlink:href="#aN"/><use transform="matrix(0.010850694444444444,0,0,0.010850694444444444,84.7439236111111,0)" xlink:href="#bc"/><use transform="matrix(0.010850694444444444,0,0,0.010850694444444444,104.21006944444441,0)" xlink:href="#aN"/><use transform="matrix(0.010850694444444444,0,0,0.010850694444444444,117.1657986111111,0)" xlink:href="#ba"/><use transform="matrix(0.010850694444444444,0,0,0.010850694444444444,130.29513888888889,0)" xlink:href="#aM"/></g><path d="M481 0L54-1118h197c107 314 236 620 325 951 87-331 217-637 324-951h197L670 0H481" id="bd"/><path d="M158 0v-1118h180V0H158zm91-1301c-68 0-125-53-125-119s57-119 125-119c69 0 126 53 126 119s-57 119-126 119" id="be"/><path d="M613 24c-304 0-509-231-509-576 0-350 205-580 509-580 216 0 392 114 453 309l-173 49c-33-115-133-197-280-197-223 0-326 196-326 419 0 220 103 415 326 415 150 0 252-85 285-206l172 49C1010-95 832 24 613 24" id="bf"/><g id="v"><use transform="matrix(0.010850694444444444,0,0,0.010850694444444444,0,0)" xlink:href="#aR"/><use transform="matrix(0.010850694444444444,0,0,0.010850694444444444,14.2578125,0)" xlink:href="#aN"/><use transform="matrix(0.010850694444444444,0,0,0.010850694444444444,27.213541666666664,0)" xlink:href="#aX"/><use transform="matrix(0.010850694444444444,0,0,0.010850694444444444,35.92664930555555,0)" xlink:href="#bd"/><use transform="matrix(0.010850694444444444,0,0,0.010850694444444444,48.41579861111111,0)" xlink:href="#be"/><use transform="matrix(0.010850694444444444,0,0,0.010850694444444444,53.79774305555556,0)" xlink:href="#bf"/><use transform="matrix(0.010850694444444444,0,0,0.010850694444444444,66.49305555555554,0)" xlink:href="#aN"/></g><path d="M338-670V0H158v-1490h180v566c73-149 190-208 336-208 226 0 379 139 379 422V0H872v-695c0-172-96-275-252-275-161 0-282 109-282 300" id="bg"/><path d="M158 418v-1536h174v179h20c37-59 106-193 324-193 279 0 474 222 474 576 0 356-194 580-473 580-213 0-288-135-325-197h-14v591H158zm492-555c209 0 317-186 317-421 0-232-105-413-317-413-206 0-314 166-314 413 0 249 111 421 314 421" id="bh"/><g id="w"><use transform="matrix(0.010850694444444444,0,0,0.010850694444444444,0,0)" xlink:href="#aR"/><use transform="matrix(0.010850694444444444,0,0,0.010850694444444444,14.2578125,0)" xlink:href="#bg"/><use transform="matrix(0.010850694444444444,0,0,0.010850694444444444,27.39800347222222,0)" xlink:href="#be"/><use transform="matrix(0.010850694444444444,0,0,0.010850694444444444,32.779947916666664,0)" xlink:href="#bh"/><use transform="matrix(0.010850694444444444,0,0,0.010850694444444444,46.38671875,0)" xlink:href="#bc"/><use transform="matrix(0.010850694444444444,0,0,0.010850694444444444,65.85286458333333,0)" xlink:href="#aN"/><use transform="matrix(0.010850694444444444,0,0,0.010850694444444444,78.80859375,0)" xlink:href="#ba"/><use transform="matrix(0.010850694444444444,0,0,0.010850694444444444,91.93793402777777,0)" xlink:href="#aM"/></g><g id="x"><use transform="matrix(0.010850694444444444,0,0,0.010850694444444444,0,0)" xlink:href="#aR"/><use transform="matrix(0.010850694444444444,0,0,0.010850694444444444,14.2578125,0)" xlink:href="#bg"/><use transform="matrix(0.010850694444444444,0,0,0.010850694444444444,27.39800347222222,0)" xlink:href="#be"/><use transform="matrix(0.010850694444444444,0,0,0.010850694444444444,32.779947916666664,0)" xlink:href="#bh"/><use transform="matrix(0.010850694444444444,0,0,0.010850694444444444,46.38671875,0)" xlink:href="#bc"/><use transform="matrix(0.010850694444444444,0,0,0.010850694444444444,65.85286458333333,0)" xlink:href="#aN"/><use transform="matrix(0.010850694444444444,0,0,0.010850694444444444,78.80859375,0)" xlink:href="#ba"/><use transform="matrix(0.010850694444444444,0,0,0.010850694444444444,91.93793402777777,0)" xlink:href="#aM"/></g><g id="y"><use transform="matrix(0.010850694444444444,0,0,0.010850694444444444,0,0)" xlink:href="#aY"/><use transform="matrix(0.010850694444444444,0,0,0.010850694444444444,16.03732638888889,0)" xlink:href="#be"/><use transform="matrix(0.010850694444444444,0,0,0.010850694444444444,21.419270833333336,0)" xlink:href="#aW"/><use transform="matrix(0.010850694444444444,0,0,0.010850694444444444,33.14887152777778,0)" xlink:href="#bh"/><use transform="matrix(0.010850694444444444,0,0,0.010850694444444444,46.97265625,0)" xlink:href="#aL"/><use transform="matrix(0.010850694444444444,0,0,0.010850694444444444,59.45095486111112,0)" xlink:href="#aM"/><use transform="matrix(0.010850694444444444,0,0,0.010850694444444444,66.50390625,0)" xlink:href="#bf"/><use transform="matrix(0.010850694444444444,0,0,0.010850694444444444,79.19921875,0)" xlink:href="#bg"/></g><g id="z"><use transform="matrix(0.010850694444444444,0,0,0.010850694444444444,0,0)" xlink:href="#aY"/><use transform="matrix(0.010850694444444444,0,0,0.010850694444444444,16.03732638888889,0)" xlink:href="#be"/><use transform="matrix(0.010850694444444444,0,0,0.010850694444444444,21.419270833333336,0)" xlink:href="#aW"/><use transform="matrix(0.010850694444444444,0,0,0.010850694444444444,33.14887152777778,0)" xlink:href="#bh"/><use transform="matrix(0.010850694444444444,0,0,0.010850694444444444,46.97265625,0)" xlink:href="#aL"/><use transform="matrix(0.010850694444444444,0,0,0.010850694444444444,59.45095486111112,0)" xlink:href="#aM"/><use transform="matrix(0.010850694444444444,0,0,0.010850694444444444,66.50390625,0)" xlink:href="#bf"/><use transform="matrix(0.010850694444444444,0,0,0.010850694444444444,79.19921875,0)" xlink:href="#bg"/></g><g id="A"><use transform="matrix(0.010850694444444444,0,0,0.010850694444444444,0,0)" xlink:href="#aY"/><use transform="matrix(0.010850694444444444,0,0,0.010850694444444444,16.03732638888889,0)" xlink:href="#aX"/><use transform="matrix(0.010850694444444444,0,0,0.010850694444444444,24.75043402777778,0)" xlink:href="#be"/><use transform="matrix(0.010850694444444444,0,0,0.010850694444444444,30.13237847222222,0)" xlink:href="#bd"/><use transform="matrix(0.010850694444444444,0,0,0.010850694444444444,42.1875,0)" xlink:href="#aN"/><use transform="matrix(0.010850694444444444,0,0,0.010850694444444444,55.143229166666664,0)" xlink:href="#aX"/></g><g id="B"><use transform="matrix(0.010850694444444444,0,0,0.010850694444444444,0,0)" xlink:href="#aY"/><use transform="matrix(0.010850694444444444,0,0,0.010850694444444444,16.03732638888889,0)" xlink:href="#aX"/><use transform="matrix(0.010850694444444444,0,0,0.010850694444444444,24.75043402777778,0)" xlink:href="#be"/><use transform="matrix(0.010850694444444444,0,0,0.010850694444444444,30.13237847222222,0)" xlink:href="#bd"/><use transform="matrix(0.010850694444444444,0,0,0.010850694444444444,42.1875,0)" xlink:href="#aN"/><use transform="matrix(0.010850694444444444,0,0,0.010850694444444444,55.143229166666664,0)" xlink:href="#aX"/></g><path d="M784 20c-382 0-662-292-662-764 0-473 280-766 662-766s660 293 660 766c0 472-278 764-660 764zm0-176c266 0 475-207 475-588 0-383-209-590-475-590-268 0-477 208-477 590 0 380 209 588 477 588" id="bi"/><path d="M613 24c-304 0-509-231-509-576 0-350 205-580 509-580 305 0 511 230 511 580 0 345-206 576-511 576zm0-161c226 0 329-195 329-415 0-222-103-419-329-419-223 0-326 196-326 419 0 220 103 415 326 415" id="bj"/><g id="C"><use transform="matrix(0.010850694444444444,0,0,0.010850694444444444,0,0)" xlink:href="#bi"/><use transform="matrix(0.010850694444444444,0,0,0.010850694444444444,16.9921875,0)" xlink:href="#bh"/><use transform="matrix(0.010850694444444444,0,0,0.010850694444444444,30.598958333333332,0)" xlink:href="#aN"/><use transform="matrix(0.010850694444444444,0,0,0.010850694444444444,43.5546875,0)" xlink:href="#aX"/><use transform="matrix(0.010850694444444444,0,0,0.010850694444444444,51.920572916666664,0)" xlink:href="#aL"/><use transform="matrix(0.010850694444444444,0,0,0.010850694444444444,64.39887152777777,0)" xlink:href="#aM"/><use transform="matrix(0.010850694444444444,0,0,0.010850694444444444,71.66883680555554,0)" xlink:href="#be"/><use transform="matrix(0.010850694444444444,0,0,0.010850694444444444,77.05078124999999,0)" xlink:href="#bj"/><use transform="matrix(0.010850694444444444,0,0,0.010850694444444444,90.37543402777776,0)" xlink:href="#ba"/><use transform="matrix(0.010850694444444444,0,0,0.010850694444444444,103.50477430555553,0)" xlink:href="#aW"/></g><path d="M98-1322v-168h1126v168H757V0H567v-1322H98" id="bk"/><path d="M158 0v-1490h180v865h22l478-493h223L593-638 1096 0H865L456-523 338-412V0H158" id="bl"/><g id="D"><use transform="matrix(0.010850694444444444,0,0,0.010850694444444444,0,0)" xlink:href="#bk"/><use transform="matrix(0.010850694444444444,0,0,0.010850694444444444,13.0859375,0)" xlink:href="#aX"/><use transform="matrix(0.010850694444444444,0,0,0.010850694444444444,21.451822916666664,0)" xlink:href="#aL"/><use transform="matrix(0.010850694444444444,0,0,0.010850694444444444,33.93012152777777,0)" xlink:href="#bf"/><use transform="matrix(0.010850694444444444,0,0,0.010850694444444444,46.62543402777778,0)" xlink:href="#bl"/><use transform="matrix(0.010850694444444444,0,0,0.010850694444444444,58.82161458333333,0)" xlink:href="#be"/><use transform="matrix(0.010850694444444444,0,0,0.010850694444444444,64.20355902777777,0)" xlink:href="#ba"/><use transform="matrix(0.010850694444444444,0,0,0.010850694444444444,77.33289930555554,0)" xlink:href="#bb"/></g><g id="E"><use transform="matrix(0.010850694444444444,0,0,0.010850694444444444,0,0)" xlink:href="#bk"/><use transform="matrix(0.010850694444444444,0,0,0.010850694444444444,13.0859375,0)" xlink:href="#aX"/><use transform="matrix(0.010850694444444444,0,0,0.010850694444444444,21.451822916666664,0)" xlink:href="#aL"/><use transform="matrix(0.010850694444444444,0,0,0.010850694444444444,33.93012152777777,0)" xlink:href="#bf"/><use transform="matrix(0.010850694444444444,0,0,0.010850694444444444,46.62543402777778,0)" xlink:href="#bl"/><use transform="matrix(0.010850694444444444,0,0,0.010850694444444444,58.82161458333333,0)" xlink:href="#be"/><use transform="matrix(0.010850694444444444,0,0,0.010850694444444444,64.20355902777777,0)" xlink:href="#ba"/><use transform="matrix(0.010850694444444444,0,0,0.010850694444444444,77.33289930555554,0)" xlink:href="#bb"/></g><path d="M180 0v-1490h510c348 0 508 194 508 460 0 198-88 351-276 417L1256 0h-220L726-579c-117 2-238 0-356 1V0H180zm190-747h312c235 0 327-108 327-283 0-177-92-293-329-293H370v576" id="bm"/><path d="M577 24c-279 0-473-224-473-580 0-354 195-576 474-576 218 0 287 134 324 193h14v-551h180V0H922v-173h-20C865-111 790 24 577 24zm27-161c203 0 314-172 314-421 0-247-108-413-314-413-212 0-317 181-317 413 0 235 108 421 317 421" id="bn"/><g id="F"><use transform="matrix(0.010850694444444444,0,0,0.010850694444444444,0,0)" xlink:href="#bm"/><use transform="matrix(0.010850694444444444,0,0,0.010850694444444444,13.975694444444445,0)" xlink:href="#aN"/><use transform="matrix(0.010850694444444444,0,0,0.010850694444444444,26.931423611111104,0)" xlink:href="#bn"/><use transform="matrix(0.010850694444444444,0,0,0.010850694444444444,40.53819444444444,0)" xlink:href="#be"/><use transform="matrix(0.010850694444444444,0,0,0.010850694444444444,45.920138888888886,0)" xlink:href="#aW"/></g><g id="G"><use transform="matrix(0.010850694444444444,0,0,0.010850694444444444,0,0)" xlink:href="#aH"/><use transform="matrix(0.010850694444444444,0,0,0.010850694444444444,15.33203125,0)" xlink:href="#bh"/><use transform="matrix(0.010850694444444444,0,0,0.010850694444444444,29.15581597222222,0)" xlink:href="#aL"/><use transform="matrix(0.010850694444444444,0,0,0.010850694444444444,41.63411458333333,0)" xlink:href="#bf"/><use transform="matrix(0.010850694444444444,0,0,0.010850694444444444,54.32942708333333,0)" xlink:href="#bg"/><use transform="matrix(0.010850694444444444,0,0,0.010850694444444444,67.46961805555554,0)" xlink:href="#aN"/></g><path d="M180 0v-1490h190c0 262 1 526-3 784 217-279 467-523 702-784h249L716-845 1319 0h-225L585-716 370-489V0H180" id="bo"/><path d="M678-1118v154H420V0H240v-964H20v-154h220v-149c0-194 155-293 318-293 85 0 141 18 168 30l-50 154c-19-6-47-17-97-17-111 0-159 58-159 166v109h258" id="bp"/><g id="H"><use transform="matrix(0.010850694444444444,0,0,0.010850694444444444,0,0)" xlink:href="#bo"/><use transform="matrix(0.010850694444444444,0,0,0.010850694444444444,14.930555555555555,0)" xlink:href="#aL"/><use transform="matrix(0.010850694444444444,0,0,0.010850694444444444,27.408854166666664,0)" xlink:href="#bp"/><use transform="matrix(0.010850694444444444,0,0,0.010850694444444444,35.63368055555556,0)" xlink:href="#bl"/><use transform="matrix(0.010850694444444444,0,0,0.010850694444444444,47.82986111111111,0)" xlink:href="#aL"/></g><path d="M295 13c-75 0-135-60-135-135s60-135 135-135 135 60 135 135S370 13 295 13" id="bq"/><g id="I"><use transform="matrix(0.010850694444444444,0,0,0.010850694444444444,0,0)" xlink:href="#aW"/><use transform="matrix(0.010850694444444444,0,0,0.010850694444444444,11.729600694444445,0)" xlink:href="#bg"/><use transform="matrix(0.010850694444444444,0,0,0.010850694444444444,24.869791666666664,0)" xlink:href="#be"/><use transform="matrix(0.010850694444444444,0,0,0.010850694444444444,30.251736111111104,0)" xlink:href="#bh"/><use transform="matrix(0.010850694444444444,0,0,0.010850694444444444,43.85850694444444,0)" xlink:href="#bc"/><use transform="matrix(0.010850694444444444,0,0,0.010850694444444444,63.32465277777778,0)" xlink:href="#aN"/><use transform="matrix(0.010850694444444444,0,0,0.010850694444444444,76.28038194444444,0)" xlink:href="#ba"/><use transform="matrix(0.010850694444444444,0,0,0.010850694444444444,89.40972222222221,0)" xlink:href="#aM"/><use transform="matrix(0.010850694444444444,0,0,0.010850694444444444,96.67968749999997,0)" xlink:href="#bq"/><use transform="matrix(0.010850694444444444,0,0,0.010850694444444444,103.08159722222221,0)" xlink:href="#aN"/><use transform="matrix(0.010850694444444444,0,0,0.010850694444444444,115.6032986111111,0)" xlink:href="#bd"/><use transform="matrix(0.010850694444444444,0,0,0.010850694444444444,127.6584201388889,0)" xlink:href="#aN"/><use transform="matrix(0.010850694444444444,0,0,0.010850694444444444,140.61414930555557,0)" xlink:href="#ba"/><use transform="matrix(0.010850694444444444,0,0,0.010850694444444444,153.74348958333334,0)" xlink:href="#aM"/><use transform="matrix(0.010850694444444444,0,0,0.010850694444444444,160.79644097222223,0)" xlink:href="#aW"/></g><g id="J"><use transform="matrix(0.010850694444444444,0,0,0.010850694444444444,0,0)" xlink:href="#aL"/><use transform="matrix(0.010850694444444444,0,0,0.010850694444444444,12.47829861111111,0)" xlink:href="#aW"/><use transform="matrix(0.010850694444444444,0,0,0.010850694444444444,24.207899305555554,0)" xlink:href="#aW"/><use transform="matrix(0.010850694444444444,0,0,0.010850694444444444,35.9375,0)" xlink:href="#be"/><use transform="matrix(0.010850694444444444,0,0,0.010850694444444444,41.31944444444444,0)" xlink:href="#bb"/><use transform="matrix(0.010850694444444444,0,0,0.010850694444444444,54.947916666666664,0)" xlink:href="#ba"/><use transform="matrix(0.010850694444444444,0,0,0.010850694444444444,68.07725694444444,0)" xlink:href="#bc"/><use transform="matrix(0.010850694444444444,0,0,0.010850694444444444,87.54340277777777,0)" xlink:href="#aN"/><use transform="matrix(0.010850694444444444,0,0,0.010850694444444444,100.49913194444444,0)" xlink:href="#ba"/><use transform="matrix(0.010850694444444444,0,0,0.010850694444444444,113.62847222222221,0)" xlink:href="#aM"/><use transform="matrix(0.010850694444444444,0,0,0.010850694444444444,120.89843749999997,0)" xlink:href="#bq"/><use transform="matrix(0.010850694444444444,0,0,0.010850694444444444,127.30034722222221,0)" xlink:href="#aN"/><use transform="matrix(0.010850694444444444,0,0,0.010850694444444444,139.82204861111111,0)" xlink:href="#bd"/><use transform="matrix(0.010850694444444444,0,0,0.010850694444444444,151.87717013888889,0)" xlink:href="#aN"/><use transform="matrix(0.010850694444444444,0,0,0.010850694444444444,164.83289930555554,0)" xlink:href="#ba"/><use transform="matrix(0.010850694444444444,0,0,0.010850694444444444,177.96223958333331,0)" xlink:href="#aM"/><use transform="matrix(0.010850694444444444,0,0,0.010850694444444444,185.01519097222223,0)" xlink:href="#aW"/></g><path d="M338-1490V0H158v-1490h180" id="br"/><path d="M537 14c-226 0-379-139-379-422v-710h180v695c0 172 97 275 253 275 160 0 281-109 281-300v-670h181V0H879v-209C806-46 684 14 537 14" id="bs"/><g id="K"><use transform="matrix(0.010850694444444444,0,0,0.010850694444444444,0,0)" xlink:href="#br"/><use transform="matrix(0.010850694444444444,0,0,0.010850694444444444,5.381944444444445,0)" xlink:href="#bj"/><use transform="matrix(0.010850694444444444,0,0,0.010850694444444444,18.70659722222222,0)" xlink:href="#bf"/><use transform="matrix(0.010850694444444444,0,0,0.010850694444444444,31.61892361111111,0)" xlink:href="#aL"/><use transform="matrix(0.010850694444444444,0,0,0.010850694444444444,44.09722222222222,0)" xlink:href="#aM"/><use transform="matrix(0.010850694444444444,0,0,0.010850694444444444,51.3671875,0)" xlink:href="#be"/><use transform="matrix(0.010850694444444444,0,0,0.010850694444444444,56.74913194444444,0)" xlink:href="#bj"/><use transform="matrix(0.010850694444444444,0,0,0.010850694444444444,70.07378472222221,0)" xlink:href="#ba"/><use transform="matrix(0.010850694444444444,0,0,0.010850694444444444,83.20312499999999,0)" xlink:href="#bq"/><use transform="matrix(0.010850694444444444,0,0,0.010850694444444444,89.60503472222221,0)" xlink:href="#bs"/><use transform="matrix(0.010850694444444444,0,0,0.010850694444444444,102.74522569444441,0)" xlink:href="#bh"/><use transform="matrix(0.010850694444444444,0,0,0.010850694444444444,116.35199652777776,0)" xlink:href="#bn"/><use transform="matrix(0.010850694444444444,0,0,0.010850694444444444,129.9587673611111,0)" xlink:href="#aL"/><use transform="matrix(0.010850694444444444,0,0,0.010850694444444444,142.4370659722222,0)" xlink:href="#aM"/><use transform="matrix(0.010850694444444444,0,0,0.010850694444444444,149.4900173611111,0)" xlink:href="#aN"/><use transform="matrix(0.010850694444444444,0,0,0.010850694444444444,162.44574652777774,0)" xlink:href="#aW"/></g><g id="L"><use transform="matrix(0.010850694444444444,0,0,0.010850694444444444,0,0)" xlink:href="#aW"/><use transform="matrix(0.010850694444444444,0,0,0.010850694444444444,11.729600694444445,0)" xlink:href="#bg"/><use transform="matrix(0.010850694444444444,0,0,0.010850694444444444,24.869791666666664,0)" xlink:href="#be"/><use transform="matrix(0.010850694444444444,0,0,0.010850694444444444,30.251736111111104,0)" xlink:href="#bh"/><use transform="matrix(0.010850694444444444,0,0,0.010850694444444444,43.85850694444444,0)" xlink:href="#bc"/><use transform="matrix(0.010850694444444444,0,0,0.010850694444444444,63.32465277777778,0)" xlink:href="#aN"/><use transform="matrix(0.010850694444444444,0,0,0.010850694444444444,76.28038194444444,0)" xlink:href="#ba"/><use transform="matrix(0.010850694444444444,0,0,0.010850694444444444,89.40972222222221,0)" xlink:href="#aM"/><use transform="matrix(0.010850694444444444,0,0,0.010850694444444444,96.67968749999997,0)" xlink:href="#bq"/><use transform="matrix(0.010850694444444444,0,0,0.010850694444444444,103.08159722222221,0)" xlink:href="#bn"/><use transform="matrix(0.010850694444444444,0,0,0.010850694444444444,116.68836805555556,0)" xlink:href="#aN"/><use transform="matrix(0.010850694444444444,0,0,0.010850694444444444,129.6440972222222,0)" xlink:href="#br"/><use transform="matrix(0.010850694444444444,0,0,0.010850694444444444,135.02604166666666,0)" xlink:href="#be"/><use transform="matrix(0.010850694444444444,0,0,0.010850694444444444,140.40798611111111,0)" xlink:href="#bd"/><use transform="matrix(0.010850694444444444,0,0,0.010850694444444444,152.46310763888889,0)" xlink:href="#aN"/><use transform="matrix(0.010850694444444444,0,0,0.010850694444444444,165.41883680555554,0)" xlink:href="#aX"/><use transform="matrix(0.010850694444444444,0,0,0.010850694444444444,173.4157986111111,0)" xlink:href="#aN"/><use transform="matrix(0.010850694444444444,0,0,0.010850694444444444,186.37152777777774,0)" xlink:href="#bn"/></g><path fill="#333" d="M135 0v-1490h581c339 0 533 192 533 485 0 204-94 351-264 424L1302 0H964L680-532H440V0H135zm305-779h220c186 0 274-77 274-226 0-150-88-233-275-233H440v459" id="bt"/><path fill="#333" d="M633 22C291 22 81-200 81-553c0-345 210-579 537-579 292 0 525 185 525 567v84H378c7 183 109 277 260 277 105 0 184-46 216-132l272 51C1071-99 893 22 633 22zM380-669h474c-15-146-94-237-233-237-143 0-229 99-241 237" id="bu"/><path fill="#333" d="M1163 418H863v-597h-10C812-89 719 19 537 19 279 19 81-185 81-557c0-382 206-575 454-575 190 0 278 113 318 202h15v-188h295V418zM629-222c153 0 240-134 240-336 0-203-86-334-240-334-158 0-240 138-240 334 0 197 84 336 240 336" id="bv"/><path fill="#333" d="M513 14c-232 0-385-159-385-421v-711h300v659c0 139 76 222 202 222 127 0 217-86 217-234v-647h301V0H864l-4-232C797-74 683 14 513 14" id="bw"/><path fill="#333" d="M572 22C302 22 117-98 78-306l279-48c29 105 101 156 224 156 114 0 185-48 185-115 0-118-228-130-337-155-215-49-322-150-322-317 0-215 187-347 470-347 265 0 424 116 466 298l-266 47c-24-76-87-130-196-130-98 0-174 46-174 113 0 56 38 95 144 117l201 40c216 44 320 143 320 302 0 220-207 367-500 367" id="bx"/><path fill="#333" d="M683-1118v229H474v562c0 71 29 104 102 104 23 0 73-7 95-13l43 225C647 9 580 16 520 16 296 16 174-96 174-301v-588H20v-229h154v-266h300v266h209" id="by"/><g id="M"><use transform="matrix(0.008680555555555556,0,0,0.008680555555555556,0,0)" xlink:href="#bt"/><use transform="matrix(0.008680555555555556,0,0,0.008680555555555556,11.458333333333334,0)" xlink:href="#bu"/><use transform="matrix(0.008680555555555556,0,0,0.008680555555555556,22.048611111111114,0)" xlink:href="#bv"/><use transform="matrix(0.008680555555555556,0,0,0.008680555555555556,33.255208333333336,0)" xlink:href="#bw"/><use transform="matrix(0.008680555555555556,0,0,0.008680555555555556,44.32291666666667,0)" xlink:href="#bu"/><use transform="matrix(0.008680555555555556,0,0,0.008680555555555556,54.91319444444445,0)" xlink:href="#bx"/><use transform="matrix(0.008680555555555556,0,0,0.008680555555555556,64.86979166666667,0)" xlink:href="#by"/><use transform="matrix(0.008680555555555556,0,0,0.008680555555555556,71.25000000000001,0)" xlink:href="#bx"/></g><path fill="#333" d="M135 0v-1490h997v253H440v360h640v249H440v375h694V0H135" id="bz"/><path fill="#333" d="M128 0v-1118h278l12 217c60-163 185-234 319-234 143 0 236 81 288 251 63-172 205-251 359-251 205 0 357 138 357 381V0h-301v-697c0-126-76-187-177-187-114 0-184 79-184 196V0H789v-705c0-109-72-179-174-179-106 0-187 74-187 208V0H128" id="bA"/><path fill="#333" d="M128 0v-1118h300V0H128zm150-1264c-91 0-165-68-165-154 0-85 74-154 165-154 90 0 165 69 165 154 0 86-75 154-165 154" id="bB"/><g id="N"><use transform="matrix(0.008680555555555556,0,0,0.008680555555555556,0,0)" xlink:href="#bz"/><use transform="matrix(0.008680555555555556,0,0,0.008680555555555556,10.79861111111111,0)" xlink:href="#bA"/><use transform="matrix(0.008680555555555556,0,0,0.008680555555555556,27.022569444444446,0)" xlink:href="#bB"/><use transform="matrix(0.008680555555555556,0,0,0.008680555555555556,31.84027777777778,0)" xlink:href="#by"/><use transform="matrix(0.008680555555555556,0,0,0.008680555555555556,38.220486111111114,0)" xlink:href="#bx"/></g><path fill="#333" d="M443 0L31-1118h319c90 293 199 572 268 885 66-313 175-593 264-885h315L784 0H443" id="bC"/><path fill="#333" d="M428-647V0H128v-1118h283l4 231c63-156 176-245 348-245 232 0 384 159 384 421V0H847v-659c0-139-76-222-202-222-128 0-217 86-217 234" id="bD"/><g id="O"><use transform="matrix(0.008680555555555556,0,0,0.008680555555555556,0,0)" xlink:href="#bz"/><use transform="matrix(0.008680555555555556,0,0,0.008680555555555556,10.79861111111111,0)" xlink:href="#bC"/><use transform="matrix(0.008680555555555556,0,0,0.008680555555555556,21.13715277777778,0)" xlink:href="#bu"/><use transform="matrix(0.008680555555555556,0,0,0.008680555555555556,31.727430555555557,0)" xlink:href="#bD"/><use transform="matrix(0.008680555555555556,0,0,0.008680555555555556,42.79513888888889,0)" xlink:href="#by"/></g><path fill="#333" d="M786 20C389 20 94-260 94-744c0-487 299-766 692-766 339 0 597 194 641 529h-309c-28-162-156-258-326-258-233 0-388 179-388 495 0 323 157 493 387 493 170 0 298-97 328-259h309c-34 277-266 530-642 530" id="bE"/><path fill="#333" d="M628 22C291 22 81-210 81-554c0-346 210-578 547-578 336 0 547 232 547 578 0 344-211 576-547 576zm0-236c160 0 242-146 242-341 0-197-82-341-242-341S387-753 387-555c0 195 81 341 241 341" id="bF"/><g id="P"><use transform="matrix(0.008680555555555556,0,0,0.008680555555555556,0,0)" xlink:href="#bE"/><use transform="matrix(0.008680555555555556,0,0,0.008680555555555556,13.151041666666668,0)" xlink:href="#bF"/><use transform="matrix(0.008680555555555556,0,0,0.008680555555555556,24.053819444444446,0)" xlink:href="#bD"/><use transform="matrix(0.008680555555555556,0,0,0.008680555555555556,35.12152777777778,0)" xlink:href="#bx"/><use transform="matrix(0.008680555555555556,0,0,0.008680555555555556,45.078125,0)" xlink:href="#bw"/><use transform="matrix(0.008680555555555556,0,0,0.008680555555555556,56.145833333333336,0)" xlink:href="#bA"/><use transform="matrix(0.008680555555555556,0,0,0.008680555555555556,72.36979166666667,0)" xlink:href="#bu"/><use transform="matrix(0.008680555555555556,0,0,0.008680555555555556,82.96006944444446,0)" xlink:href="#bx"/></g><path fill="#333" d="M135 0v-1490h305v1237h643V0H135" id="bG"/><path fill="#333" d="M628 22C291 22 81-210 81-554c0-346 210-578 547-578 265 0 455 142 497 372l-279 52c-25-116-99-188-215-188-160 0-244 139-244 341 0 200 84 341 244 341 116 0 193-74 217-195l279 51C1085-123 896 22 628 22" id="bH"/><path fill="#333" d="M440 22C227 22 68-92 68-313c0-250 202-322 422-343 195-21 271-24 271-105 0-95-63-149-175-149-116 0-187 57-211 129l-275-46c57-194 237-305 487-305 240 0 474 108 474 379V0H777v-155h-10C713-51 605 22 440 22zm85-211c140 0 238-93 238-211v-121c-37 26-156 42-222 51-111 16-185 59-185 149 0 87 70 132 169 132" id="bI"/><g id="Q"><use transform="matrix(0.008680555555555556,0,0,0.008680555555555556,0,0)" xlink:href="#bG"/><use transform="matrix(0.008680555555555556,0,0,0.008680555555555556,10.052083333333334,0)" xlink:href="#bF"/><use transform="matrix(0.008680555555555556,0,0,0.008680555555555556,20.954861111111114,0)" xlink:href="#bH"/><use transform="matrix(0.008680555555555556,0,0,0.008680555555555556,31.58854166666667,0)" xlink:href="#bI"/><use transform="matrix(0.008680555555555556,0,0,0.008680555555555556,41.90972222222223,0)" xlink:href="#by"/><use transform="matrix(0.008680555555555556,0,0,0.008680555555555556,48.42013888888889,0)" xlink:href="#bB"/><use transform="matrix(0.008680555555555556,0,0,0.008680555555555556,53.237847222222236,0)" xlink:href="#bF"/><use transform="matrix(0.008680555555555556,0,0,0.008680555555555556,64.140625,0)" xlink:href="#bD"/></g><path fill="#333" d="M750 21c-371 0-615-218-615-544v-967h305v942c0 174 123 299 310 299s309-125 309-299v-942h306v967c0 326-247 544-615 544" id="bJ"/><path fill="#333" d="M128 418v-1536h295v188h14c41-89 129-202 319-202 248 0 453 193 453 575 0 372-197 576-455 576-183 0-275-108-317-198h-9v597H128zm534-640c156 0 240-139 240-336 0-196-83-334-240-334-154 0-241 131-241 334 0 202 88 336 241 336" id="bK"/><path fill="#333" d="M537 19C279 19 81-185 81-557c0-382 206-575 454-575 190 0 278 113 318 202h10v-560h300V0H868v-179h-15C812-89 719 19 537 19zm92-241c153 0 240-134 240-336 0-203-86-334-240-334-158 0-240 138-240 334 0 197 84 336 240 336" id="bL"/><g id="R"><use transform="matrix(0.008680555555555556,0,0,0.008680555555555556,0,0)" xlink:href="#bJ"/><use transform="matrix(0.008680555555555556,0,0,0.008680555555555556,13.012152777777779,0)" xlink:href="#bK"/><use transform="matrix(0.008680555555555556,0,0,0.008680555555555556,24.21875,0)" xlink:href="#bL"/><use transform="matrix(0.008680555555555556,0,0,0.008680555555555556,35.42534722222222,0)" xlink:href="#bI"/><use transform="matrix(0.008680555555555556,0,0,0.008680555555555556,45.74652777777778,0)" xlink:href="#by"/><use transform="matrix(0.008680555555555556,0,0,0.008680555555555556,52.08333333333333,0)" xlink:href="#bu"/><use transform="matrix(0.008680555555555556,0,0,0.008680555555555556,62.67361111111111,0)" xlink:href="#bx"/></g><g id="S"><use transform="matrix(0.008680555555555556,0,0,0.008680555555555556,0,0)" xlink:href="#bz"/><use transform="matrix(0.008680555555555556,0,0,0.008680555555555556,10.79861111111111,0)" xlink:href="#bC"/><use transform="matrix(0.008680555555555556,0,0,0.008680555555555556,21.13715277777778,0)" xlink:href="#bu"/><use transform="matrix(0.008680555555555556,0,0,0.008680555555555556,31.727430555555557,0)" xlink:href="#bD"/><use transform="matrix(0.008680555555555556,0,0,0.008680555555555556,42.79513888888889,0)" xlink:href="#by"/></g><g id="T"><use transform="matrix(0.008680555555555556,0,0,0.008680555555555556,0,0)" xlink:href="#bF"/><use transform="matrix(0.008680555555555556,0,0,0.008680555555555556,10.902777777777779,0)" xlink:href="#bD"/></g><path fill="#333" d="M659 0H135v-1490h529c448 0 721 280 721 744 0 466-273 746-726 746zM440-263h204c287 0 437-148 437-483 0-333-150-481-435-481H440v964" id="bM"/><path fill="#333" d="M428-1490V0H128v-1490h300" id="bN"/><path fill="#333" d="M128 0v-1118h290v195h12c54-169 184-238 367-200v268c-27-8-86-15-130-15-138 0-239 95-239 234V0H128" id="bO"/><path fill="#333" d="M120 396l69-226c123 42 245 23 254-107l8-60L31-1118h319c87 288 199 559 259 872 72-308 185-583 277-872h315L726 132c-68 181-186 294-410 294-79 0-153-13-196-30" id="bP"/><g id="U"><use transform="matrix(0.008680555555555556,0,0,0.008680555555555556,0,0)" xlink:href="#bM"/><use transform="matrix(0.008680555555555556,0,0,0.008680555555555556,12.838541666666668,0)" xlink:href="#bu"/><use transform="matrix(0.008680555555555556,0,0,0.008680555555555556,23.428819444444446,0)" xlink:href="#bN"/><use transform="matrix(0.008680555555555556,0,0,0.008680555555555556,28.24652777777778,0)" xlink:href="#bB"/><use transform="matrix(0.008680555555555556,0,0,0.008680555555555556,33.064236111111114,0)" xlink:href="#bC"/><use transform="matrix(0.008680555555555556,0,0,0.008680555555555556,43.40277777777778,0)" xlink:href="#bu"/><use transform="matrix(0.008680555555555556,0,0,0.008680555555555556,53.99305555555556,0)" xlink:href="#bO"/><use transform="matrix(0.008680555555555556,0,0,0.008680555555555556,61.51041666666667,0)" xlink:href="#bP"/></g><g id="V"><use transform="matrix(0.008680555555555556,0,0,0.008680555555555556,0,0)" xlink:href="#bM"/><use transform="matrix(0.008680555555555556,0,0,0.008680555555555556,12.838541666666668,0)" xlink:href="#bu"/><use transform="matrix(0.008680555555555556,0,0,0.008680555555555556,23.428819444444446,0)" xlink:href="#bN"/><use transform="matrix(0.008680555555555556,0,0,0.008680555555555556,28.24652777777778,0)" xlink:href="#bB"/><use transform="matrix(0.008680555555555556,0,0,0.008680555555555556,33.064236111111114,0)" xlink:href="#bC"/><use transform="matrix(0.008680555555555556,0,0,0.008680555555555556,43.40277777777778,0)" xlink:href="#bu"/><use transform="matrix(0.008680555555555556,0,0,0.008680555555555556,53.99305555555556,0)" xlink:href="#bO"/><use transform="matrix(0.008680555555555556,0,0,0.008680555555555556,61.51041666666667,0)" xlink:href="#bP"/></g><g id="W"><use transform="matrix(0.008680555555555556,0,0,0.008680555555555556,0,0)" xlink:href="#bz"/><use transform="matrix(0.008680555555555556,0,0,0.008680555555555556,10.79861111111111,0)" xlink:href="#bC"/><use transform="matrix(0.008680555555555556,0,0,0.008680555555555556,21.13715277777778,0)" xlink:href="#bu"/><use transform="matrix(0.008680555555555556,0,0,0.008680555555555556,31.727430555555557,0)" xlink:href="#bD"/><use transform="matrix(0.008680555555555556,0,0,0.008680555555555556,42.79513888888889,0)" xlink:href="#by"/></g><path fill="#333" d="M768-1560L288 224H28l480-1784h260" id="bQ"/><path fill="#333" d="M449 0L49-1490h333c89 395 194 758 253 1185 65-426 176-790 269-1185h317c93 394 201 758 268 1181 60-425 164-788 253-1181h334L1675 0h-348c-90-376-204-711-266-1118C1004-714 886-373 798 0H449" id="bR"/><g id="X"><use transform="matrix(0.008680555555555556,0,0,0.008680555555555556,0,0)" xlink:href="#bt"/><use transform="matrix(0.008680555555555556,0,0,0.008680555555555556,11.458333333333334,0)" xlink:href="#bu"/><use transform="matrix(0.008680555555555556,0,0,0.008680555555555556,22.22222222222222,0)" xlink:href="#bI"/><use transform="matrix(0.008680555555555556,0,0,0.008680555555555556,32.54340277777778,0)" xlink:href="#bL"/><use transform="matrix(0.008680555555555556,0,0,0.008680555555555556,43.75,0)" xlink:href="#bx"/><use transform="matrix(0.008680555555555556,0,0,0.008680555555555556,53.70659722222222,0)" xlink:href="#bQ"/><use transform="matrix(0.008680555555555556,0,0,0.008680555555555556,60.74652777777777,0)" xlink:href="#bR"/><use transform="matrix(0.008680555555555556,0,0,0.008680555555555556,78.59375,0)" xlink:href="#bO"/><use transform="matrix(0.008680555555555556,0,0,0.008680555555555556,85.96354166666666,0)" xlink:href="#bB"/><use transform="matrix(0.008680555555555556,0,0,0.008680555555555556,90.78124999999999,0)" xlink:href="#by"/><use transform="matrix(0.008680555555555556,0,0,0.008680555555555556,97.11805555555554,0)" xlink:href="#bu"/><use transform="matrix(0.008680555555555556,0,0,0.008680555555555556,107.7083333333333,0)" xlink:href="#bx"/></g><g id="Y"><use transform="matrix(0.008680555555555556,0,0,0.008680555555555556,0,0)" xlink:href="#bt"/><use transform="matrix(0.008680555555555556,0,0,0.008680555555555556,11.458333333333334,0)" xlink:href="#bu"/><use transform="matrix(0.008680555555555556,0,0,0.008680555555555556,22.22222222222222,0)" xlink:href="#bI"/><use transform="matrix(0.008680555555555556,0,0,0.008680555555555556,32.54340277777778,0)" xlink:href="#bL"/><use transform="matrix(0.008680555555555556,0,0,0.008680555555555556,43.75,0)" xlink:href="#bx"/></g><path fill="#333" d="M750-1118v229H516V0H217v-889H20v-229h197v-86c0-238 156-356 363-356 94 0 178 20 215 31l-54 226c-25-7-61-15-100-15-123-3-131 84-125 200h234" id="bS"/><g id="Z"><use transform="matrix(0.008680555555555556,0,0,0.008680555555555556,0,0)" xlink:href="#bS"/><use transform="matrix(0.008680555555555556,0,0,0.008680555555555556,7.074652777777778,0)" xlink:href="#bO"/><use transform="matrix(0.008680555555555556,0,0,0.008680555555555556,13.880208333333334,0)" xlink:href="#bF"/><use transform="matrix(0.008680555555555556,0,0,0.008680555555555556,24.782986111111118,0)" xlink:href="#bA"/></g><path fill="#333" d="M428-647V0H128v-1490h294v586c65-146 175-228 341-228 232 0 385 159 385 421V0H847v-659c0-139-76-222-202-222-128 0-217 86-217 234" id="bT"/><g id="aa"><use transform="matrix(0.008680555555555556,0,0,0.008680555555555556,0,0)" xlink:href="#bE"/><use transform="matrix(0.008680555555555556,0,0,0.008680555555555556,13.151041666666668,0)" xlink:href="#bI"/><use transform="matrix(0.008680555555555556,0,0,0.008680555555555556,23.472222222222225,0)" xlink:href="#bH"/><use transform="matrix(0.008680555555555556,0,0,0.008680555555555556,33.932291666666664,0)" xlink:href="#bT"/><use transform="matrix(0.008680555555555556,0,0,0.008680555555555556,45,0)" xlink:href="#bu"/></g></defs></g></svg>